<svg width="360" height="800" viewBox="0 0 360 800" fill="none" xmlns="http://www.w3.org/2000/svg">
<g clip-path="url(#clip0_2102_2056)">
<rect width="360" height="800" fill="url(#paint0_linear_2102_2056)"/>
<path opacity="0.6" d="M-200.182 87.106C-197.698 83.9402 -194.253 82.483 -190.408 81.9428C-189.646 81.8297 -188.797 82.2694 -187.923 82.4704C-188.373 83.2995 -188.747 84.003 -189.247 84.9452C-188.647 84.9829 -188.198 85.1462 -187.973 84.9955C-186.151 83.7141 -184.041 82.6337 -182.655 80.9629C-181.07 79.066 -179.035 78.4002 -176.975 77.659C-174.878 76.9053 -172.706 76.4907 -170.409 76.9429C-167.825 77.458 -165.104 77.0309 -162.557 78.1238C-161.234 78.6891 -160.148 79.3047 -159.187 80.4479C-157.863 82.0056 -156.665 83.8146 -154.742 84.6312C-153.656 84.1789 -153.819 83.3875 -154.081 82.8096C-154.717 81.4026 -155.054 79.8449 -155.666 78.5133C-157.089 75.4731 -155.691 72.6968 -155.454 69.8451C-155.379 68.8778 -154.455 67.9356 -153.819 67.0563C-151.384 63.7021 -149.037 60.26 -144.681 59.0917C-143.407 58.7525 -142.259 58.5766 -141.011 59.0289C-139.85 59.4434 -138.651 59.7449 -137.266 60.1595C-137.678 62.6217 -139.113 64.9207 -138.427 67.5085C-137.777 68.1869 -136.929 68.6517 -136.342 67.6593C-135.655 66.4784 -135.118 65.1468 -134.806 63.8026C-134.195 61.2147 -133.833 58.5515 -131.698 56.642C-131.498 56.4661 -131.348 56.1897 -131.249 55.9385C-129.451 51.0894 -125.294 48.6899 -121.237 46.1775C-117.542 43.8911 -113.235 43.0368 -109.403 41.052C-108.579 40.6248 -107.505 40.6876 -106.544 40.5746C-105.72 40.4741 -104.821 40.6374 -104.085 40.361C-102.949 39.9213 -101.937 40.0721 -100.814 40.2982C-99.3159 40.5997 -97.7554 40.6248 -96.2449 40.8635C-95.3087 41.0143 -94.1227 41.0394 -93.5235 41.6173C-92.1753 42.9112 -90.9644 42.258 -89.4914 41.7052C-86.8699 44.0041 -83.8239 45.5242 -80.2536 46.0895C-78.1564 46.4161 -77.2951 48.8784 -75.0605 49.4563C-73.1381 49.9588 -72.0021 51.7929 -71.4528 53.8154C-71.3529 54.2049 -71.1033 54.7074 -70.7912 54.8456C-67.9325 56.1018 -67.0961 58.9284 -65.5356 61.5414C-66.1973 62.1443 -66.9588 62.7097 -67.5455 63.4257C-67.8576 63.8152 -68.1696 64.594 -67.9824 64.9207C-67.6828 65.4608 -66.9712 66.1141 -66.4594 66.1015C-64.9489 66.0638 -63.351 65.9633 -61.9654 65.4231C-60.3176 64.7699 -58.8195 64.3176 -57.1717 65.197C-56.9345 65.3226 -56.61 65.4357 -56.3603 65.3855C-51.5417 64.5187 -48.9701 68.1241 -46.2986 70.9255C-43.2652 74.0913 -43.0529 78.262 -44.0142 82.4579C-44.2264 83.3749 -44.5759 84.2669 -45.0628 85.812C-44.0391 85.3095 -43.4149 85.2216 -43.2277 84.8824C-42.5661 83.6639 -41.7796 82.4076 -41.5549 81.076C-41.118 78.5886 -41.0056 76.0384 -40.8309 73.5134C-40.731 72.0561 -41.3177 70.8501 -42.2041 69.6441C-46.1988 64.2297 -51.5916 61.5288 -58.1829 61.0012C-59.4063 60.9007 -60.6172 60.6871 -61.8655 60.5238C-63.5258 56.0516 -65.8977 52.3331 -69.7426 49.7201C-70.3043 49.3432 -70.8661 48.7653 -71.1282 48.1498C-72.2143 45.6121 -74.4363 44.4815 -76.6709 43.3006C-78.6433 42.258 -80.5283 41.052 -82.5256 40.0595C-84.3857 39.1299 -86.1583 37.9365 -88.3804 37.8737C-89.1918 37.8485 -89.9907 37.434 -90.7897 37.1576C-91.314 36.9817 -91.8633 36.7933 -92.3376 36.5169C-93.7483 35.7129 -95.3461 35.4742 -96.8192 35.7632C-100.776 36.5295 -104.946 34.4692 -108.766 36.7305C-109.24 37.0194 -109.789 37.4591 -110.264 37.4214C-112.935 37.1576 -114.97 38.8158 -117.305 39.5696C-122.573 41.2781 -126.542 44.7076 -130 48.803C-132.047 51.2401 -133.733 53.9787 -135.543 56.5289C-137.053 55.9762 -138.464 55.4486 -140.149 54.833C-140.099 54.0792 -140.099 53.1371 -139.962 52.2074C-139.687 50.4236 -139.425 48.6271 -138.988 46.8809C-138.539 45.0719 -136.716 44.1549 -136.067 42.3208C-134.894 38.9666 -132.497 36.3159 -129.963 33.929C-127.241 31.3663 -124.433 28.8287 -120.7 27.7609C-120.563 27.7232 -120.425 27.6855 -120.313 27.5976C-116.843 24.9092 -112.623 24.4569 -108.541 23.5148C-105.882 22.9118 -103.248 23.0499 -100.602 23.2132C-98.9289 23.3138 -97.2686 23.6278 -95.6208 23.9293C-94.9716 24.0549 -94.3724 24.4318 -93.5235 24.7836C-94.8093 27.4719 -96.5445 29.8714 -96.17 33.125C-95.5334 32.8738 -95.059 32.8361 -94.8468 32.5723C-92.4125 29.7206 -89.7036 27.1202 -87.881 23.7534C-87.3193 22.7233 -86.1833 21.5173 -85.1347 21.3163C-82.2011 20.751 -80.4783 18.3139 -77.9442 17.2084C-76.6709 16.6556 -75.46 15.7637 -74.1367 15.5753C-71.9272 15.2612 -69.7176 15.0602 -67.6578 14.1055C-67.3083 13.9422 -66.8339 13.9547 -66.4345 14.0301C-61.3911 15.0476 -56.2105 15.5627 -51.4793 17.7863C-49.9812 18.4898 -48.5831 19.4068 -47.1226 20.1983C-46.5233 20.5249 -45.8742 20.7384 -45.3 20.9771C-44.526 20.3113 -45.0004 19.8842 -45.3749 19.5073C-48.3834 16.4672 -51.7914 14.1557 -55.8859 12.7487C-59.0567 11.6683 -62.0902 10.2237 -65.4857 9.95985C-65.7229 9.94729 -65.9351 9.64579 -66.1848 9.45735C-66.6342 8.66591 -65.985 8.15085 -65.5856 7.67348C-61.9654 3.37711 -58.2578 -0.80619 -53.152 -3.40662C-52.2907 -3.84631 -51.6041 -4.61262 -50.7677 -5.08999C-49.8065 -5.64274 -48.7828 -6.32111 -47.7342 -6.43418C-45.612 -6.64774 -43.6397 -7.2633 -41.6548 -7.9668C-40.8808 -8.24317 -40.0319 -8.40648 -39.208 -8.43161C-35.0261 -8.5698 -30.8316 -8.34367 -26.6996 -7.77836C-24.4276 -7.47686 -22.2805 -6.22062 -19.9585 -5.34124C-20.1458 -4.29856 -20.1957 -3.45687 -20.4579 -2.69056C-21.519 0.349558 -22.6924 3.35199 -23.7535 6.40467C-24.3402 8.08804 -24.7522 9.8091 -23.9532 12.0955C-23.3915 11.3166 -22.9546 10.9397 -22.8297 10.4875C-21.906 7.09561 -20.77 3.79167 -19.6215 0.475182C-19.0473 -1.19563 -18.111 -2.45187 -17.2621 -3.85887C-15.2273 -7.21305 -12.9553 -10.3034 -9.32265 -12.0873C-8.08678 -14.1601 -5.83975 -14.7631 -3.92978 -15.8812C-1.59538 -17.2379 1.18843 -17.0118 3.57277 -18.155C8.31648 -18.268 13.0727 -18.4188 17.8164 -18.4816C19.2145 -18.5067 20.5128 -18.0921 21.8111 -17.3887C23.2342 -16.6098 24.882 -16.2706 26.4175 -15.6676C27.8281 -15.1148 29.5508 -14.8008 30.5121 -13.7958C31.5607 -12.7028 32.9089 -12.4642 33.9325 -11.6853C35.9049 -10.1904 37.5278 -8.21805 39.2255 -6.38393C39.8871 -5.66787 40.2242 -4.58749 40.9607 -4.00962C43.4949 -2.03731 44.2938 0.663622 44.7182 3.67861C44.9554 5.29917 45.4423 6.84436 46.2162 8.38954C47.2524 10.4623 46.8404 12.9874 46.9528 15.3366C47.0402 17.2963 47.3148 19.2435 47.5894 21.1781C47.6269 21.4419 48.1637 21.8314 48.4758 21.8314C48.8128 21.8314 49.3121 21.5299 49.4744 21.2158C50.7477 18.7536 51.1597 15.2612 50.523 11.4171C50.3358 10.2739 50.1111 9.21866 50.7852 7.78654C54.7425 8.75385 58.5499 9.87191 61.8955 11.8819C65.1786 13.8542 68.3994 16.0778 70.8211 19.1933C71.1582 19.6329 71.5702 20.0475 71.8073 20.5374C72.5938 22.158 75.0905 21.8188 75.4276 24.2434C75.6523 25.8765 77.1503 27.3212 78.0491 28.8664C80.6207 33.3135 82.1936 37.9993 81.2074 43.376C80.7704 43.5645 80.2586 44.0041 79.7718 43.979C74.2541 43.6021 69.373 45.8383 64.4671 47.8106C62.5571 48.5769 60.9342 50.0718 59.1616 51.1899C58.4625 51.6296 57.6885 51.9185 57.1143 52.1949C54.7799 50.7879 52.6702 49.4688 50.5106 48.2377C48.7878 47.2578 46.9153 46.793 44.9055 46.6674C42.8332 46.5292 40.7984 46.0518 38.7262 45.788C32.11 44.9589 26.1928 46.6171 20.4504 50.0969C17.0924 52.1321 15.2947 55.0089 13.6719 58.2249C12.7356 60.0967 11.9991 62.0815 11.2376 64.0287C10.8506 65.0212 10.6259 66.0638 11.4748 67.6844C11.9617 66.1015 12.2238 65.0337 12.6233 64.0287C13.0352 62.986 13.6095 62.0187 14.1088 61.0137C17.0674 54.9712 21.8735 51.1899 28.34 49.7452C31.7355 48.9789 35.2308 48.5141 38.7012 48.3884C40.8733 48.3131 43.2452 48.7653 45.2301 49.6447C47.7517 50.7502 50.4606 51.6798 52.4954 53.7401C52.9698 54.2174 53.6689 54.5064 54.3055 54.7702C55.5039 55.2727 56.4652 55.9887 57.1767 57.1194C58.0381 58.4887 59.4487 59.1419 61.0716 59.8329C61.8206 56.956 59.8357 55.3732 58.5125 53.7401C58.9494 52.0064 60.4224 51.8934 61.4211 51.2276C66.6017 47.798 72.4814 46.5041 78.5359 46.2905C81.4071 46.19 84.3158 47.0066 87.2119 47.3583C89.0095 47.5844 90.57 48.1749 92.2053 49.1422C96.3124 51.5542 100.27 54.1421 103.99 57.1068C104.826 57.7726 107.473 61.2147 108.072 62.1946C109.32 64.2172 110.618 66.2146 111.929 68.1995C113.44 70.4858 114.226 72.8601 113.989 75.7118C113.839 77.458 114.576 79.2796 114.813 81.076C115.112 83.2996 115.287 85.5357 115.612 87.7467C115.687 88.2366 116.124 89.0406 116.436 89.0532C117.035 89.0909 117.909 88.8522 118.233 88.3999C118.857 87.5205 119.182 86.4276 119.594 85.498C123.551 85.1085 126.847 86.5909 130.118 88.1361C130.492 88.312 130.854 88.5255 131.166 88.8019C133.663 91.0003 136.135 93.2113 138.569 95.3847C138.506 96.2389 137.982 96.3143 137.395 96.264C133.526 95.95 129.643 96.3896 125.773 95.9374C124.962 95.8369 124.076 96.2138 123.302 96.0128C121.08 95.46 118.882 95.661 116.66 95.7741C115.287 95.8495 113.864 96.1258 112.541 95.3972C112.191 95.2088 111.667 95.0329 111.33 95.1585C108.546 96.2012 105.787 95.1208 103.016 95.0831C100.07 95.0455 97.1487 95.1208 94.2151 95.46C92.2802 95.6861 90.3078 95.6359 88.3604 95.5354C86.0135 95.4223 83.7041 94.656 81.3447 95.6108C80.7829 95.8369 79.984 95.4977 79.2974 95.3972C76.1017 94.9701 72.9184 94.6309 69.7351 95.4726C68.6615 95.7615 67.6254 95.6987 66.4644 95.3721C64.8915 94.9198 63.1688 94.9324 61.496 94.9073C59.1241 94.8821 56.7648 94.945 54.3929 95.0706C47.7143 95.4475 41.0356 95.0455 34.3694 94.7063C31.8728 95.6485 29.1514 94.4676 26.5923 95.7113C25.5312 96.2263 23.8834 95.6861 22.5476 95.4098C20.9997 95.0957 19.5141 95.0329 17.9787 95.3721C17.0299 95.5856 16.1062 95.5605 15.12 95.1711C14.4334 94.8947 13.5221 95.1711 12.7107 95.259C12.3112 95.2967 11.7744 95.661 11.5247 95.5103C9.48994 94.2289 7.41768 95.4223 5.38289 95.3218C3.58527 95.2213 1.77515 95.9876 0.00250244 95.146C-0.12233 95.0831 -0.30957 95.0203 -0.409439 95.0706C-3.21822 96.4901 -5.86472 94.9952 -8.58611 94.6686C-9.94681 94.5053 -11.5072 95.1711 -12.7056 94.7188C-14.9027 93.8771 -16.8002 94.9701 -18.8225 95.0831C-22.4178 95.2841 -25.9756 95.7615 -29.4335 94.2038C-30.0202 93.94 -30.8816 93.9274 -31.4933 94.141C-35.8625 95.5982 -40.2941 94.3922 -44.6883 94.5555C-45.6245 94.5932 -46.5233 94.2038 -47.4846 94.7565C-48.683 95.4349 -49.9813 95.2841 -51.0923 94.5555C-52.7276 93.4752 -54.2256 93.3118 -56.2105 93.8269C-59.0068 94.5555 -62.0278 93.8897 -64.874 94.7691C-65.2361 94.8821 -65.7229 94.7691 -66.1099 94.6309C-69.3431 93.5003 -72.6512 93.9651 -75.9593 94.0153C-78.3062 94.053 -80.6281 94.1033 -83.025 93.6385C-85.6964 93.1234 -88.5551 93.5882 -91.3265 93.6762C-92.0131 93.7013 -92.7995 94.1661 -93.3613 93.9651C-96.2075 92.9098 -99.1286 94.2415 -101.987 93.5254C-103.036 93.2616 -104.297 93.2993 -105.308 93.651C-107.967 94.5806 -110.626 94.254 -113.197 93.7013C-117.092 92.8721 -121.012 93.1988 -124.919 93.0857C-129.788 92.9475 -134.657 93.0355 -139.525 93.048C-141.048 93.048 -142.584 93.0732 -144.107 93.0857C-145.23 93.0983 -146.354 93.1485 -147.465 93.0983C-151.796 92.8973 -156.116 92.6335 -160.435 92.445C-162.944 92.332 -165.453 92.5455 -167.95 91.8671C-168.986 91.5782 -170.172 91.9174 -171.295 91.8546C-176.314 91.5782 -181.332 91.2516 -186.351 90.9627C-187.973 90.8747 -193.291 90.322 -197.511 90.1712C-198.672 89.9577 -199.833 89.7441 -201.293 89.4677C-200.794 88.5507 -200.644 87.6964 -200.182 87.106Z" fill="url(#paint1_linear_2102_2056)"/>
<path opacity="0.6" d="M262.181 11.1C263.359 9.68021 264.004 8.38268 264.2 7.11337C264.359 6.05091 264.855 5.1953 265.172 4.23627C266.135 1.37797 267.79 -1.14183 269.304 -3.73687C269.556 -4.16937 269.912 -4.59249 270.323 -4.90277C272.398 -6.45415 274.052 -8.51325 276.455 -9.66033C277.062 -9.9518 277.558 -10.4689 278.1 -10.892C278.306 -11.0519 278.474 -11.3433 278.698 -11.3715C280.811 -11.6536 282.475 -13.0075 284.419 -13.6751C284.821 -13.8161 285.335 -14.0418 285.671 -13.9102C287.747 -13.1016 289.756 -14.1076 291.794 -14.0418C293.177 -13.9948 294.57 -13.9478 295.954 -13.8632C296.898 -13.8067 297.795 -13.5717 298.795 -13.6751C299.571 -13.7597 300.422 -13.2144 301.226 -12.8947C301.861 -12.6409 302.45 -12.246 303.095 -12.0015C304.899 -11.3245 306.666 -10.6099 308.04 -9.1996C308.161 -9.07737 308.292 -8.94574 308.451 -8.87992C312.77 -6.99006 314.695 -3.04111 316.836 0.682198C318.163 2.98576 318.341 5.59962 318.079 8.22286C317.967 9.33233 317.789 10.4418 317.705 11.5607C317.677 11.965 317.836 12.3787 317.901 12.8018C318.649 12.6137 318.696 12.0496 318.752 11.5607C318.939 9.84945 319.079 8.13824 319.229 6.42702C319.276 5.90989 319.313 5.39275 319.35 4.88503C319.406 4.10464 319.864 3.66272 320.594 3.38065C322.603 2.60966 324.576 3.05158 326.538 3.5405C327.212 3.70974 327.866 4.00122 328.501 4.30209C329.464 4.7534 330.315 5.34576 330.792 6.3424C331.334 7.48948 332.362 8.4203 332.483 9.73662C330.838 10.8367 329.174 11.8051 327.698 12.9992C326.707 13.7984 325.996 14.9361 325.006 16.0926C326.258 16.3464 327.025 15.7071 327.8 15.2934C328.408 14.9737 328.894 14.4284 329.446 13.9959C330.894 12.8394 332.465 11.9368 334.325 11.523C335.774 11.2034 337.195 10.7521 338.615 10.3102C341.887 9.29472 345.131 8.34509 348.552 9.77423C349.253 10.0657 350.103 9.98109 350.87 10.1597C354.6 11.0059 357.198 13.4129 359.451 16.243C360.367 17.3901 361.105 18.6688 361.965 19.8629C362.134 20.0979 362.461 20.2296 362.76 20.4458C363.442 19.1671 362.021 18.4525 362.236 17.2208C363.059 16.6567 363.938 16.0361 365.209 16.5157C365.517 16.6285 365.985 16.6943 366.228 16.5439C367.321 15.8575 368.266 16.4687 369.238 16.7789C369.658 16.9106 370.023 17.2491 370.434 17.3149C372.238 17.6157 373.042 18.9697 373.809 20.3142C374.641 21.781 374.977 23.3887 374.463 25.0341C374.164 25.9838 373.827 26.877 372.752 27.4976C371.565 28.1745 370.845 29.4909 369.462 30.0738C366.901 31.1457 364.358 31.9355 361.498 31.2867C359.75 30.8918 358.105 30.2901 356.497 29.5849C355.899 29.3216 355.469 28.7104 354.852 28.1557C354.646 28.1839 354.263 28.1463 353.964 28.2779C351.636 29.2934 349.234 29.5378 346.701 29.331C344.775 29.1712 342.831 29.0771 340.906 28.9737C338.036 28.8233 335.559 27.8643 333.231 26.4727C332.381 25.965 331.53 25.6641 330.558 25.4008C330.091 26.2753 331.371 26.6608 331.175 27.4317C331.072 27.5634 330.997 27.7608 330.866 27.8078C328.623 28.5694 326.38 29.3874 323.949 29.3498C322.351 29.331 320.752 29.2276 319.154 29.2276C317.518 29.2276 316.004 28.607 314.602 28.0147C312.611 27.1685 310.667 26.2282 308.573 25.5983C308.76 23.9341 310.62 23.8589 311.199 22.4767C310.807 22.5426 310.461 22.5144 310.218 22.646C307.554 24.1598 304.899 25.6923 302.226 27.2061C301.927 27.3753 301.562 27.4599 301.226 27.5634C299.113 28.2215 297.01 28.8797 294.888 29.5002C294.383 29.6507 293.841 29.6977 293.318 29.7541C292.43 29.8387 291.542 29.8575 290.663 29.961C288.831 30.1772 287.017 30.243 285.176 30.0644C283.26 29.8763 281.287 30.4311 279.399 29.6037C279.025 29.4438 278.521 29.5285 278.081 29.5567C275.193 29.7165 272.482 28.8985 269.762 28.1651C268.229 27.7514 266.668 27.4411 265.144 27.0086C264.602 26.8488 264.135 26.4539 263.443 26.059C264.957 25.0248 266.088 23.9623 266.593 22.4955C266.238 21.8562 265.78 22.1383 265.406 22.2417C264.2 22.5896 263.097 23.1161 262.312 24.1221C262.097 24.3948 261.873 24.7333 261.574 24.8555C259.947 25.5231 258.554 26.6043 256.956 27.3001C255.666 27.8642 254.301 28.2591 252.955 28.6917C251.534 29.1524 250.076 29.4156 248.581 29.6601C246.664 29.9704 244.72 30.1302 242.813 30.4593C241.991 30.6003 241.243 30.5533 240.448 30.3841C239.588 30.196 238.7 30.1208 237.822 30.008C237.476 29.961 237.074 30.0174 236.775 29.8857C235.382 29.237 233.924 29.0677 232.382 29.0019C231.465 28.9643 230.531 28.4566 229.671 28.0335C228.708 27.554 227.736 27.4129 226.614 27.4505C227.502 29.1994 227.614 29.284 230.662 30.4969C229.259 31.6158 227.474 31.5594 225.857 31.926C224.502 32.2269 223.062 32.1705 221.66 32.2645C220.763 32.3209 219.931 32.1611 219.052 31.9166C218.267 31.7004 217.341 32.1611 216.519 31.6158C216.257 31.4371 215.78 31.3619 215.491 31.4559C214.117 31.8978 213.154 31.2115 212.088 30.5345C211.088 29.8951 209.705 29.8576 209.013 28.6729C208.891 28.4754 208.359 28.419 208.022 28.4284C207.321 28.4378 206.826 28.2121 206.498 27.601C206.414 27.4505 206.321 27.2249 206.19 27.1967C204.302 26.736 203.704 24.9589 202.479 23.8307C201.264 22.7024 200.077 21.5459 198.834 20.4552C198.619 20.2672 198.132 20.1638 197.889 20.2766C197.656 20.38 197.441 20.8031 197.441 21.0852C197.431 22.063 197.796 22.9751 198.432 23.7085C199.899 25.4009 201.002 27.4223 203.161 28.5036C203.9 28.8703 203.732 29.6789 202.928 30.102C201.226 31.0046 199.357 31.0892 197.487 31.1174C196.871 31.1268 196.235 30.9388 195.627 30.9858C193.188 31.1833 191.113 30.243 189.103 29.0866C188.972 29.0113 188.916 28.8045 188.766 28.56C190.14 27.648 191.879 27.1027 192.711 25.4761C192.468 25.429 192.244 25.3162 192.131 25.3726C189.243 26.9898 185.971 27.3941 182.793 28.0147C181.522 28.2591 180.176 28.2686 178.895 28.607C178.521 28.7105 175.409 28.1557 175.072 27.9865C173.979 27.4223 172.894 26.83 171.791 26.3035C171.333 26.0872 170.819 25.9744 170.333 25.824C169.922 25.6923 169.342 25.7111 169.118 25.4385C168.379 24.5358 167.305 24.0939 166.426 23.3982C166.099 23.1443 165.865 22.7494 165.65 22.3827C165.482 22.0912 165.482 21.6587 165.257 21.4425C163.379 19.5714 163.416 17.0516 162.958 14.7574C162.603 13.0086 163.126 11.1752 163.93 9.52976C164.996 7.36724 166.267 5.29873 167.903 3.50289C169.109 2.17716 170.52 1.05831 172.118 0.146286C173.567 -0.681114 175.026 -1.41452 176.689 -1.66838C178.241 -1.89403 179.793 -2.07268 181.354 -2.23252C184.784 -2.58981 187.962 -1.56494 191.066 -0.361446C193.468 0.578785 195.291 2.32762 196.702 4.46194C197.17 5.16711 197.665 5.85347 198.217 6.62446C198.815 5.65602 198.946 4.88504 198.347 4.07644C198.095 3.73796 197.908 3.34307 197.665 2.99518C196.842 1.78229 196.02 0.578777 195.029 -0.869179C193.636 -1.04782 192.29 -1.98804 190.954 -2.94707C189.654 -3.8779 188.168 -4.36684 186.588 -4.6113C185.897 -4.72413 185.196 -4.88395 184.504 -4.88395C183.345 -4.89335 182.653 -5.40107 182.494 -6.50114C182.251 -8.19356 181.251 -9.68854 181.391 -11.5126C181.559 -13.6845 181.765 -15.7718 183.018 -17.6429C183.448 -18.2822 183.756 -19.0062 184.102 -19.6926C185.149 -21.7517 187.205 -22.8329 188.757 -24.4031C189.206 -24.8544 189.981 -25.0331 190.636 -25.2493C191.786 -25.6254 192.945 -25.9733 194.122 -26.2554C194.702 -26.3964 195.319 -26.4528 195.908 -26.3964C197.366 -26.2742 198.834 -26.1425 200.264 -25.8887C201.563 -25.6536 202.713 -25.2493 203.04 -23.6227C203.274 -22.4757 204.012 -21.432 204.461 -20.3225C205.405 -17.9626 206.984 -16.1385 208.929 -14.5025C209.91 -13.6751 210.836 -12.7725 211.967 -12.1425C212.63 -11.7664 213.35 -11.3809 214.247 -12.0767C214.051 -12.3494 213.93 -12.6973 213.687 -12.8571C212.228 -13.8161 210.817 -14.7752 209.948 -16.3736C209.602 -17.0129 208.732 -17.3608 208.312 -17.9814C207.312 -19.4763 206.209 -20.9807 205.582 -22.6355C204.9 -24.4501 204.582 -26.434 204.32 -28.3709C204.068 -30.2232 203.937 -32.113 204.526 -33.9653C204.732 -34.614 204.797 -35.3192 204.825 -36.0056C204.928 -38.3655 205.9 -40.434 207.003 -42.4461C207.452 -43.2547 208.284 -43.8377 208.415 -44.8625C208.443 -45.0788 208.732 -45.2574 208.854 -45.4831C209.518 -46.6208 211.097 -46.8464 211.546 -48.1721C211.967 -49.4226 213.434 -49.6201 214.042 -50.7014C214.182 -50.9458 214.621 -51.0304 214.93 -51.1715C216.108 -51.6792 217.313 -52.1399 218.463 -52.704C220.8 -53.8229 223.343 -54.2742 225.801 -54.9888C226.539 -55.2051 227.287 -55.3555 228.026 -55.5529C228.605 -55.7128 229.147 -55.882 229.783 -55.694C230.166 -55.5811 230.662 -55.5905 231.035 -55.7222C232.073 -56.0983 233.008 -56.1735 233.943 -55.4307C234.167 -55.2521 234.625 -55.2239 234.915 -55.3179C235.625 -55.5623 236.233 -55.4025 236.887 -55.1204C237.336 -54.923 237.915 -54.782 238.373 -54.876C239.888 -55.2145 241.215 -54.7631 242.524 -54.105C242.748 -53.9922 242.982 -53.7947 243.215 -53.7947C244.945 -53.7947 246.263 -52.8545 247.655 -51.9989C248.3 -51.604 249.104 -51.4818 249.786 -51.1527C250.31 -50.8988 251.02 -50.6073 251.189 -50.1654C251.74 -48.6893 252.927 -48.1157 254.086 -47.7208C254.591 -46.837 254.9 -46.0096 255.442 -45.3891C256.47 -44.2138 257.068 -42.8128 257.816 -41.4683C259.04 -39.2776 259.555 -36.8424 260.293 -34.5012C260.714 -33.1567 260.545 -31.6241 260.573 -30.1761C260.602 -28.982 260.489 -27.788 260.527 -26.6033C260.536 -26.3776 260.938 -26.0109 261.181 -25.9827C261.443 -25.9545 261.901 -26.2084 261.985 -26.434C262.854 -28.982 264.995 -30.0351 267.229 -31.0411C270.155 -32.3575 273.118 -32.1036 276.109 -31.389C276.763 -31.2292 277.39 -30.8813 277.988 -30.5616C278.595 -30.2419 279.119 -29.7436 279.745 -29.518C281.325 -28.9444 282.073 -27.7315 282.839 -26.3494C283.456 -25.2305 283.811 -24.0364 284.297 -22.8893C284.989 -21.2345 284.97 -19.4199 284.998 -17.6147C283.765 -16.5992 282.11 -17.0411 280.829 -16.2137C279.614 -15.4333 278.184 -14.982 276.707 -14.3239C275.604 -15.1419 274.361 -15.9128 273.286 -16.8719C271.286 -18.6677 268.809 -19.5703 266.35 -20.2755C263.658 -21.0465 260.816 -20.7832 258.143 -19.8336C254.376 -18.4985 251.291 -16.1855 248.758 -13.1392C248.328 -12.6314 248.076 -11.9827 247.739 -11.3998C245.431 -11.9357 243.159 -12.4622 240.888 -12.9981C238.224 -13.6281 235.513 -13.4494 232.83 -13.252C230.073 -13.0545 227.736 -11.616 225.287 -10.4971C224.978 -10.3561 224.717 -10.121 224.399 -9.98001C222.211 -8.98336 220.342 -7.59181 218.949 -5.64553C217.856 -4.12236 216.491 -2.77784 215.715 -1.03841C215.509 -0.577698 215.023 -0.15461 215.005 0.2967C214.939 1.68824 213.799 2.76013 213.92 4.22688C213.986 5.05429 213.584 5.90989 213.584 6.74669C213.574 8.19465 213.631 9.652 213.808 11.0906C214.032 12.877 214.36 14.654 214.743 16.4123C215.304 18.9979 216.846 21.0758 218.547 23.0597C218.781 23.3324 218.818 23.3041 220.136 23.2571C219.856 22.599 219.697 21.9314 219.332 21.4049C217.463 18.6688 216.977 15.519 216.407 12.4069C216.117 10.8085 216.949 6.65265 217.837 5.26112C218.398 4.3679 217.818 3.5969 217.921 2.64727C218.809 1.64123 219.762 0.625805 220.314 -0.793941C220.781 -1.98803 221.931 -2.9847 222.922 -3.92492C224.016 -4.97798 224.978 -6.13447 226.306 -7.01829C228.456 -8.45684 230.849 -9.21841 233.213 -10.0646C234.298 -10.4595 235.56 -10.7604 236.812 -10.2997C237.195 -10.1586 237.71 -10.1586 238.102 -10.2715C240.925 -11.1459 243.393 -10.0176 245.889 -9.01157C246.608 -8.7201 247.309 -8.37222 248.02 -8.04313C248.338 -7.8927 248.712 -7.79868 248.945 -7.57302C251.488 -5.11902 254.339 -2.92829 256.003 0.2967C256.264 0.795021 256.292 0.776234 257.106 1.02069C257.479 0.475361 257.068 0.0522499 256.872 -0.399063C256.479 -1.34869 256.077 -2.30773 255.647 -3.24796C254.713 -5.32587 253.479 -7.13111 251.404 -8.3064C250.6 -8.75771 249.945 -9.49107 249.142 -10.168C250.02 -11.6912 251.235 -12.7537 252.469 -13.7785C253.198 -14.3897 254.021 -14.8786 254.815 -15.4239C255.526 -15.9129 256.208 -16.477 257.152 -16.4488C257.236 -16.4488 257.349 -16.4676 257.405 -16.5146C259.19 -18.1318 261.527 -17.5206 263.593 -17.972C264.303 -18.1224 265.116 -17.8403 265.873 -17.7181C269.024 -17.2292 271.491 -15.5179 273.697 -13.3742C273.922 -13.1486 273.996 -12.7819 274.174 -12.4246C270.968 -9.9236 268.322 -6.98066 266.191 -3.61463C264.574 -1.05721 263.312 1.70706 262.733 4.65938C262.256 6.59626 261.48 8.59895 262.181 11.1Z" fill="url(#paint2_linear_2102_2056)"/>
<path opacity="0.6" d="M363.605 109.797C364.516 110.556 365.244 111.168 365.962 111.77C366.037 111.833 366.101 111.96 366.176 111.96C367.826 111.928 368.866 112.941 369.83 114.049C370.708 115.062 371.94 115.632 372.701 116.856C373.43 118.027 375.026 118.639 375.144 120.286C376.28 121.267 376.773 122.639 377.469 123.894C377.94 124.739 378.24 125.646 378.123 126.902C377.673 126.67 377.319 126.596 377.126 126.374C375.915 125.002 374.405 123.873 373.655 122.122C373.483 121.721 373.023 121.425 372.648 121.14C372.348 120.908 371.833 120.866 371.662 120.581C370.505 118.629 368.544 117.553 366.873 116.139C366.144 115.526 365.608 114.682 365.008 113.923C364.323 113.047 363.476 112.424 362.319 112.414C361.312 112.403 360.369 112.319 359.566 111.643C359.491 111.58 359.394 111.485 359.319 111.496C357.637 111.77 356.158 110.852 354.605 110.715C352.858 110.556 351.166 110.24 349.473 109.881C349.387 109.86 349.28 109.733 349.216 109.754C347.737 110.261 346.269 110.873 344.759 109.839C343.248 110.187 341.748 110.546 340.226 110.873C339.573 111.01 338.898 111.105 338.223 111.137C336.873 111.189 335.705 111.675 334.88 112.677C333.905 113.87 332.726 114.64 331.205 114.83C330.359 114.936 329.791 115.347 329.223 115.917C327.509 117.626 325.762 119.294 324.037 120.982C323.769 121.246 323.534 121.562 323.362 121.89C322.344 123.947 321.359 126.015 320.352 128.084C320.309 128.168 320.244 128.253 320.234 128.348C319.966 130.236 319.473 132.136 319.537 134.014C319.569 135.08 319.591 136.072 319.334 137.095C319.216 137.56 318.969 138.056 319.044 138.499C319.494 141.221 319.709 143.986 320.63 146.614C320.759 146.972 321.059 147.289 321.091 147.648C321.337 150.349 322.934 152.438 324.327 154.623C325.152 155.91 326.116 157.113 327.252 158.696C326.405 158.611 325.827 158.728 325.548 158.495C324.594 157.683 323.598 156.86 322.902 155.847C321.873 154.338 321.144 152.649 320.212 151.077C319.28 149.515 318.284 147.996 317.952 146.202C317.523 146.139 317.223 146.012 316.955 146.065C313.955 146.635 311.245 147.89 308.705 149.526C308.32 149.779 308.041 150.222 307.741 150.592C307.195 151.257 306.637 151.921 306.145 152.628C305.502 153.567 304.634 154.412 304.655 155.678C304.655 155.857 304.559 156.058 304.462 156.216C303.145 158.453 302.555 160.796 303.327 163.371C303.423 163.708 303.262 164.12 303.209 164.5C303.166 164.785 303.037 165.069 303.048 165.354C303.059 166.389 304.259 167.127 303.777 168.32C303.391 169.28 303.702 170.177 304.195 171.074C304.462 171.549 304.452 172.182 304.58 172.741C304.645 173.015 304.677 173.374 304.859 173.543C305.684 174.313 306.809 174.841 306.852 176.17C307.848 176.677 308.245 177.722 308.973 178.471C309.38 178.882 309.852 179.262 310.366 179.526C311.652 180.191 312.991 180.782 314.298 181.426C315.509 182.016 316.634 182.861 317.909 183.188C319.441 183.589 320.898 184.528 322.709 183.705C323.587 183.304 324.819 183.61 325.88 183.705C327.187 183.831 328.409 183.768 329.598 182.85C329.019 181.658 328.537 180.412 327.852 179.283C326.48 177.025 325.805 174.577 325.419 172.023C325.366 171.665 325.377 171.665 326.319 171.126C326.941 172.414 327.712 173.648 328.141 174.999C329.084 177.933 330.777 180.486 332.137 183.209C332.512 183.958 333.241 184.517 333.744 185.203C335.169 187.134 336.948 188.759 338.469 190.606C339.476 191.83 340.987 192.695 342.369 193.582C343.987 194.616 345.659 195.576 347.384 196.41C348.101 196.758 349.087 196.526 349.859 196.811C350.555 197.064 351.069 197.877 351.766 198.045C352.666 198.267 353.673 198.098 354.991 198.098C355.366 198.351 355.998 199.027 356.758 199.238C357.551 199.449 358.473 199.122 359.33 199.174C360.562 199.259 361.88 198.763 363.026 199.628C363.219 199.776 363.637 199.85 363.83 199.744C365.748 198.773 368.158 199.438 369.916 197.877C370.29 197.539 371.008 197.539 371.576 197.476C373.44 197.275 375.198 196.874 376.515 195.376C376.815 195.038 377.33 194.837 377.78 194.711C378.412 194.531 378.787 194.225 378.958 193.592C379.183 192.759 379.815 192.358 380.63 192.136C382.065 191.746 383.394 191.229 384.133 189.793C384.337 189.403 384.862 189.16 385.226 188.844C385.526 188.591 385.976 188.379 386.073 188.063C386.994 185.182 389.758 183.715 391.344 181.362C391.547 181.056 391.644 180.666 391.762 180.307C392.008 179.537 392.469 178.956 393.208 178.597C394.108 178.872 394.108 179.653 393.937 180.254C393.337 182.333 393.476 184.718 391.558 186.29C390.99 187.81 389.951 188.844 388.462 189.561C387.894 189.836 387.326 190.448 387.123 191.028C386.512 192.769 385.237 193.888 383.801 194.901C383.651 195.006 383.587 195.217 383.49 195.376C384.208 196.093 384.915 196.832 385.655 197.539C386.308 198.151 387.026 198.615 388.001 198.278C388.944 197.961 389.694 198.267 390.412 198.89C390.765 199.196 391.28 199.597 391.655 199.533C394.172 199.122 396.594 200.304 399.101 199.924C401.094 199.618 403.13 199.544 405.09 198.974C406.012 198.7 407.126 198.858 407.93 198.425C411.519 196.494 415.633 195.661 418.933 193.17C420.09 192.294 421.301 191.482 422.415 190.564C423.39 189.762 424.344 189.023 425.479 188.401C426.797 187.683 428.008 186.638 428.886 185.319C429.122 184.961 429.615 184.771 430.161 184.37C430.472 185.963 429.015 186.438 428.608 187.44C428.222 188.379 427.419 189.171 426.712 189.973C425.972 190.817 425.137 191.587 424.29 192.442C425.672 192.949 426.819 193.392 427.987 193.772C428.437 193.919 428.929 194.004 429.411 194.014C430.869 194.046 432.347 193.898 433.74 194.5C436.461 194.13 439.086 195.418 441.819 194.975C442.097 194.932 442.461 195.112 442.665 194.996C443.576 194.458 444.422 194.035 445.622 194.152C446.629 194.247 447.701 193.761 448.718 193.466C449.168 193.339 449.554 193.012 449.993 192.822C450.797 192.495 451.697 192.326 452.404 191.872C453.122 191.408 453.722 190.88 454.601 190.564C455.811 190.131 456.872 189.266 457.986 188.601C457.793 188.274 457.729 188 457.601 187.968C456.861 187.767 455.886 187.852 455.393 187.409C453.84 185.995 451.793 185.488 450.111 184.359C449.811 184.159 449.661 183.758 449.426 183.452C449.136 183.072 448.922 182.502 448.547 182.365C446.929 181.805 446.319 180.381 445.311 179.231C444.379 178.154 443.329 177.173 442.536 175.97C442.108 175.326 442.119 174.725 442.558 173.912C443.04 174.144 443.683 174.239 443.983 174.619C446.308 177.584 449.565 179.389 452.661 181.362C455.436 183.135 458.554 184.348 461.736 185.203C463.751 185.752 465.893 185.942 468.025 185.9C469.772 185.868 471.529 186.047 473.265 185.689C473.929 185.551 474.636 185.499 475.215 185.203C475.89 184.866 476.468 184.813 477.165 185.066C477.518 185.193 478 185.298 478.3 185.161C478.986 184.834 479.554 184.285 480.24 183.958C480.829 183.673 481.515 184.338 482.19 183.789C483.754 182.523 485.897 182.143 487.247 180.529C487.365 180.391 487.568 180.275 487.75 180.233C489.561 179.874 490.397 178.334 491.415 177.12C492.379 175.959 492.85 174.45 494.04 173.395C494.35 173.121 494.35 172.509 494.457 172.034C494.629 171.285 494.565 170.409 494.95 169.797C496.204 167.771 496.354 165.46 496.847 163.244C496.965 162.706 496.954 162.104 496.89 161.556C496.718 160.015 496.675 158.485 497.19 157.134C496.643 155.161 495.4 153.567 495.357 151.573C495.347 151.235 495.068 150.845 494.8 150.581C493.686 149.494 492.818 148.27 492.1 146.909C491.907 146.529 491.457 146.17 491.05 146.033C489.904 145.653 489.122 144.862 488.2 144.155C486.679 142.994 484.836 142.245 483.133 141.327C482.833 141.158 482.533 140.989 482.254 140.841C482.361 140.578 482.404 140.451 482.425 140.451C484.515 140.694 486.657 140.609 488.565 141.844C489.507 142.456 490.707 142.678 491.693 143.036C492.379 142.699 492.475 142.192 492.315 141.749C491.897 140.557 492.411 139.28 491.736 138.077C491.222 137.169 491.093 136.04 489.936 135.607C489.85 135.576 489.754 135.502 489.711 135.428C489.057 134.468 488.554 133.37 487.74 132.579C486.936 131.798 485.79 131.387 484.879 130.701C484.504 130.416 484.279 129.983 483.7 130.004C483.433 130.015 483.025 129.92 482.918 129.73C481.825 127.904 480.068 128.031 478.3 128.115C477.829 128.136 477.165 128.305 476.897 128.063C475.643 126.955 474.283 127.567 472.975 127.735C471.443 127.925 469.933 128.337 468.4 128.537C467.361 128.675 466.568 129.139 465.861 129.825C464.961 133.138 464.929 136.789 462.004 139.311C461.404 138.784 461.34 138.172 461.543 137.475C461.897 136.272 462.261 135.08 462.572 133.866C463.247 131.239 463.568 128.601 463.193 125.878C463.011 124.57 462.979 123.24 462.754 121.921C462.261 119.04 460.708 116.782 458.972 114.566C458.447 113.901 458.104 113.036 457.461 112.551C455.768 111.274 454.043 109.987 452.158 109.005C450.551 108.172 448.729 107.823 446.844 107.887C445.108 107.95 443.361 107.823 441.615 107.834C440.865 107.834 440.104 107.961 439.172 108.045C439.483 109.438 439.74 110.63 440.008 111.823C440.415 113.595 440.876 115.358 441.219 117.141C441.401 118.08 441.604 119.104 441.401 120.001C440.876 122.312 441.551 124.813 440.276 126.997C440.136 127.229 439.954 127.44 439.804 127.651C439.076 127.588 439.172 126.976 438.979 126.606C438.797 126.269 438.626 125.889 438.604 125.52C438.497 124 438.529 122.459 438.336 120.95C438.122 119.357 438.24 117.742 437.79 116.149C437.404 114.788 437.501 113.289 437.244 111.875C437.072 110.957 436.847 109.902 436.258 109.248C435.561 108.478 435.122 107.676 434.94 106.747C434.576 104.9 433.301 103.507 432.54 101.861C432.283 101.302 431.576 100.954 431.094 100.489C430.022 99.4448 428.179 99.1494 427.89 97.3344C426.572 96.8595 425.994 95.8043 425.597 94.5802C425.522 94.3481 425.201 94.1792 424.965 93.9998C423.154 92.5964 421.397 91.1402 419.051 90.5387C417.979 90.2643 416.994 89.4729 416.094 88.7659C415.226 88.0905 414.39 87.584 413.233 87.4996C412.076 87.4258 410.919 87.1831 410.008 86.3178C409.751 86.0751 409.322 85.8851 408.958 85.864C407.019 85.7479 405.144 85.252 403.151 85.2731C401.415 85.2836 399.701 86.0223 397.955 85.4947C396.315 84.9987 394.665 85.3786 393.026 85.4103C392.158 85.4208 391.355 85.4208 390.562 86.054C390.037 86.4655 389.073 86.2861 388.355 86.5288C386.265 87.2569 384.165 87.985 382.14 88.882C380.823 89.4729 379.515 90.2221 378.423 91.1507C377.383 92.0371 376.451 92.9657 375.069 93.3245C374.737 93.4089 374.415 93.7677 374.212 94.0737C373.494 95.1395 372.583 95.9203 371.405 96.5218C370.773 96.8489 370.344 97.6087 369.916 98.2313C369.433 98.9383 369.198 99.8669 368.598 100.447C366.058 102.874 365.126 106.146 363.68 109.153C363.583 109.332 363.626 109.543 363.605 109.797Z" fill="url(#paint3_linear_2102_2056)"/>
</g>
<defs>
<linearGradient id="paint0_linear_2102_2056" x1="180" y1="0" x2="180" y2="800" gradientUnits="userSpaceOnUse">
<stop stop-color="#336B6C"/>
<stop offset="1" stop-color="#133133"/>
</linearGradient>
<linearGradient id="paint1_linear_2102_2056" x1="-31.3622" y1="-18.4827" x2="-31.3622" y2="96.276" gradientUnits="userSpaceOnUse">
<stop stop-color="#E0E0E0"/>
<stop offset="1" stop-color="white" stop-opacity="0"/>
</linearGradient>
<linearGradient id="paint2_linear_2102_2056" x1="268.776" y1="-56" x2="268.776" y2="32.2759" gradientUnits="userSpaceOnUse">
<stop stop-color="#E0E0E0"/>
<stop offset="1" stop-color="white" stop-opacity="0"/>
</linearGradient>
<linearGradient id="paint3_linear_2102_2056" x1="400.086" y1="85.2415" x2="400.086" y2="200" gradientUnits="userSpaceOnUse">
<stop stop-color="#E0E0E0"/>
<stop offset="1" stop-color="white" stop-opacity="0"/>
</linearGradient>
<clipPath id="clip0_2102_2056">
<rect width="360" height="800" fill="white"/>
</clipPath>
</defs>
</svg>
