<svg width="360" height="800" viewBox="0 0 360 800" fill="none" xmlns="http://www.w3.org/2000/svg">
<g clip-path="url(#clip0_2102_1957)">
<rect width="360" height="800" fill="url(#paint0_linear_2102_1957)"/>
<path opacity="0.6" d="M-243.63 87.106C-241.146 83.9402 -237.701 82.483 -233.856 81.9428C-233.094 81.8297 -232.246 82.2694 -231.372 82.4704C-231.821 83.2995 -232.196 84.003 -232.695 84.9452C-232.096 84.9829 -231.646 85.1462 -231.422 84.9955C-229.599 83.7141 -227.489 82.6337 -226.104 80.9629C-224.518 79.066 -222.483 78.4002 -220.424 77.659C-218.326 76.9053 -216.154 76.4907 -213.857 76.9429C-211.273 77.458 -208.552 77.0309 -206.005 78.1238C-204.682 78.6891 -203.596 79.3047 -202.635 80.4479C-201.312 82.0056 -200.113 83.8146 -198.191 84.6312C-197.105 84.1789 -197.267 83.3875 -197.529 82.8096C-198.166 81.4026 -198.503 79.8449 -199.114 78.5133C-200.538 75.4731 -199.139 72.6968 -198.902 69.8451C-198.827 68.8778 -197.904 67.9356 -197.267 67.0563C-194.833 63.7021 -192.486 60.26 -188.129 59.0917C-186.856 58.7525 -185.707 58.5766 -184.459 59.0289C-183.298 59.4434 -182.099 59.7449 -180.714 60.1595C-181.126 62.6217 -182.561 64.9207 -181.875 67.5085C-181.226 68.1869 -180.377 68.6517 -179.79 67.6593C-179.103 66.4784 -178.567 65.1468 -178.255 63.8026C-177.643 61.2147 -177.281 58.5515 -175.146 56.642C-174.946 56.4661 -174.797 56.1897 -174.697 55.9385C-172.899 51.0894 -168.742 48.6899 -164.685 46.1775C-160.99 43.8911 -156.683 43.0368 -152.851 41.052C-152.027 40.6248 -150.953 40.6876 -149.992 40.5746C-149.168 40.4741 -148.269 40.6374 -147.533 40.361C-146.397 39.9213 -145.386 40.0721 -144.262 40.2982C-142.764 40.5997 -141.204 40.6248 -139.693 40.8635C-138.757 41.0143 -137.571 41.0394 -136.972 41.6173C-135.624 42.9112 -134.413 42.258 -132.94 41.7052C-130.318 44.0041 -127.272 45.5242 -123.702 46.0895C-121.605 46.4161 -120.743 48.8784 -118.509 49.4563C-116.586 49.9588 -115.45 51.7929 -114.901 53.8154C-114.801 54.2049 -114.551 54.7074 -114.239 54.8456C-111.381 56.1018 -110.544 58.9284 -108.984 61.5414C-109.646 62.1443 -110.407 62.7097 -110.994 63.4257C-111.306 63.8152 -111.618 64.594 -111.431 64.9207C-111.131 65.4608 -110.419 66.1141 -109.908 66.1015C-108.397 66.0638 -106.799 65.9633 -105.414 65.4231C-103.766 64.7699 -102.268 64.3176 -100.62 65.197C-100.383 65.3226 -100.058 65.4357 -99.8085 65.3855C-94.9899 64.5187 -92.4184 68.1241 -89.7469 70.9255C-86.7134 74.0913 -86.5012 78.262 -87.4624 82.4579C-87.6746 83.3749 -88.0242 84.2669 -88.511 85.812C-87.4874 85.3095 -86.8632 85.2216 -86.6759 84.8824C-86.0143 83.6639 -85.2279 82.4076 -85.0032 81.076C-84.5662 78.5886 -84.4539 76.0384 -84.2791 73.5134C-84.1792 72.0561 -84.766 70.8501 -85.6523 69.6441C-89.647 64.2297 -95.0399 61.5288 -101.631 61.0012C-102.855 60.9007 -104.065 60.6871 -105.314 60.5238C-106.974 56.0516 -109.346 52.3331 -113.191 49.7201C-113.753 49.3432 -114.314 48.7653 -114.576 48.1498C-115.663 45.6121 -117.885 44.4815 -120.119 43.3006C-122.092 42.258 -123.977 41.052 -125.974 40.0595C-127.834 39.1299 -129.607 37.9365 -131.829 37.8737C-132.64 37.8485 -133.439 37.434 -134.238 37.1576C-134.762 36.9817 -135.311 36.7933 -135.786 36.5169C-137.196 35.7129 -138.794 35.4742 -140.267 35.7632C-144.225 36.5295 -148.394 34.4692 -152.214 36.7305C-152.688 37.0194 -153.238 37.4591 -153.712 37.4214C-156.384 37.1576 -158.418 38.8158 -160.753 39.5696C-166.021 41.2781 -169.991 44.7076 -173.448 48.803C-175.496 51.2401 -177.181 53.9787 -178.991 56.5289C-180.502 55.9762 -181.912 55.4486 -183.597 54.833C-183.548 54.0792 -183.548 53.1371 -183.41 52.2074C-183.136 50.4236 -182.873 48.6271 -182.437 46.8809C-181.987 45.0719 -180.165 44.1549 -179.515 42.3208C-178.342 38.9666 -175.945 36.3159 -173.411 33.929C-170.69 31.3663 -167.881 28.8287 -164.148 27.7609C-164.011 27.7232 -163.874 27.6855 -163.761 27.5976C-160.291 24.9092 -156.071 24.4569 -151.989 23.5148C-149.33 22.9118 -146.696 23.0499 -144.05 23.2132C-142.377 23.3138 -140.717 23.6278 -139.069 23.9293C-138.42 24.0549 -137.821 24.4318 -136.972 24.7836C-138.258 27.4719 -139.993 29.8714 -139.618 33.125C-138.982 32.8738 -138.507 32.8361 -138.295 32.5723C-135.861 29.7206 -133.152 27.1202 -131.329 23.7534C-130.768 22.7233 -129.632 21.5173 -128.583 21.3163C-125.649 20.751 -123.927 18.3139 -121.392 17.2084C-120.119 16.6556 -118.908 15.7637 -117.585 15.5753C-115.375 15.2612 -113.166 15.0602 -111.106 14.1055C-110.757 13.9422 -110.282 13.9547 -109.883 14.0301C-104.839 15.0476 -99.6587 15.5627 -94.9275 17.7863C-93.4295 18.4898 -92.0314 19.4068 -90.5708 20.1983C-89.9716 20.5249 -89.3224 20.7384 -88.7482 20.9771C-87.9742 20.3113 -88.4486 19.8842 -88.8231 19.5073C-91.8316 16.4672 -95.2396 14.1557 -99.3342 12.7487C-102.505 11.6683 -105.538 10.2237 -108.934 9.95985C-109.171 9.94729 -109.383 9.64579 -109.633 9.45735C-110.082 8.66591 -109.433 8.15085 -109.034 7.67348C-105.414 3.37711 -101.706 -0.80619 -96.6003 -3.40662C-95.7389 -3.84631 -95.0524 -4.61262 -94.216 -5.08999C-93.2547 -5.64274 -92.2311 -6.32111 -91.1825 -6.43418C-89.0603 -6.64774 -87.0879 -7.2633 -85.103 -7.9668C-84.3291 -8.24317 -83.4802 -8.40648 -82.6563 -8.43161C-78.4743 -8.5698 -74.2799 -8.34367 -70.1479 -7.77836C-67.8759 -7.47686 -65.7287 -6.22062 -63.4068 -5.34124C-63.594 -4.29856 -63.644 -3.45687 -63.9061 -2.69056C-64.9672 0.349558 -66.1407 3.35199 -67.2018 6.40467C-67.7885 8.08804 -68.2004 9.8091 -67.4015 12.0955C-66.8397 11.3166 -66.4028 10.9397 -66.278 10.4875C-65.3542 7.09561 -64.2182 3.79167 -63.0697 0.475182C-62.4955 -1.19563 -61.5592 -2.45187 -60.7103 -3.85887C-58.6755 -7.21305 -56.4036 -10.3034 -52.7709 -12.0873C-51.535 -14.1601 -49.288 -14.7631 -47.378 -15.8812C-45.0436 -17.2379 -42.2598 -17.0118 -39.8755 -18.155C-35.1318 -18.268 -30.3756 -18.4188 -25.6319 -18.4816C-24.2337 -18.5067 -22.9354 -18.0921 -21.6371 -17.3887C-20.214 -16.6098 -18.5662 -16.2706 -17.0307 -15.6676C-15.6201 -15.1148 -13.8974 -14.8008 -12.9362 -13.7958C-11.8876 -12.7028 -10.5394 -12.4642 -9.5157 -11.6853C-7.54332 -10.1904 -5.92046 -8.21805 -4.22272 -6.38393C-3.5611 -5.66787 -3.22403 -4.58749 -2.48752 -4.00962C0.0466309 -2.03731 0.845566 0.663622 1.27 3.67861C1.50719 5.29917 1.99403 6.84436 2.76801 8.38954C3.80414 10.4623 3.39218 12.9874 3.50453 15.3366C3.59192 17.2963 3.86656 19.2435 4.1412 21.1781C4.17865 21.4419 4.71542 21.8314 5.02751 21.8314C5.36456 21.8314 5.86391 21.5299 6.0262 21.2158C7.2995 18.7536 7.71146 15.2612 7.0748 11.4171C6.88754 10.2739 6.66286 9.21866 7.33696 7.78654C11.2942 8.75385 15.1017 9.87191 18.4472 11.8819C21.7304 13.8542 24.9511 16.0778 27.3729 19.1933C27.71 19.6329 28.1219 20.0475 28.3591 20.5374C29.1455 22.158 31.6422 21.8188 31.9793 24.2434C32.204 25.8765 33.702 27.3212 34.6008 28.8664C37.1724 33.3135 38.7453 37.9993 37.7591 43.376C37.3222 43.5645 36.8104 44.0041 36.3235 43.979C30.8058 43.6021 25.9248 45.8383 21.0188 47.8106C19.1089 48.5769 17.486 50.0718 15.7133 51.1899C15.0143 51.6296 14.2403 51.9185 13.6661 52.1949C11.3317 50.7879 9.22195 49.4688 7.06232 48.2377C5.3396 47.2578 3.46709 46.793 1.45724 46.6674C-0.615005 46.5292 -2.64981 46.0518 -4.72206 45.788C-11.3383 44.9589 -17.2554 46.6171 -22.9978 50.0969C-26.3559 52.1321 -28.1535 55.0089 -29.7764 58.2249C-30.7126 60.0967 -31.4491 62.0815 -32.2106 64.0287C-32.5976 65.0212 -32.8223 66.0638 -31.9734 67.6844C-31.4866 66.1015 -31.2244 65.0337 -30.825 64.0287C-30.413 62.986 -29.8388 62.0187 -29.3394 61.0137C-26.3809 54.9712 -21.5747 51.1899 -15.1083 49.7452C-11.7128 48.9789 -8.21744 48.5141 -4.74704 48.3884C-2.57491 48.3131 -0.203049 48.7653 1.78183 49.6447C4.30348 50.7502 7.01239 51.6798 9.04718 53.7401C9.52156 54.2174 10.2206 54.5064 10.8573 54.7702C12.0557 55.2727 13.0169 55.9887 13.7285 57.1194C14.5898 58.4887 16.0005 59.1419 17.6233 59.8329C18.3723 56.956 16.3875 55.3732 15.0642 53.7401C15.5011 52.0064 16.9742 51.8934 17.9729 51.2276C23.1535 47.798 29.0332 46.5041 35.0877 46.2905C37.9589 46.19 40.8675 47.0066 43.7637 47.3583C45.5613 47.5844 47.1217 48.1749 48.7571 49.1422C52.8641 51.5542 56.8214 54.1421 60.5415 57.1068C61.3778 57.7726 64.0243 61.2147 64.6235 62.1946C65.8719 64.2172 67.1702 66.2146 68.4809 68.1995C69.9914 70.4858 70.7779 72.8601 70.5407 75.7118C70.3909 77.458 71.1274 79.2796 71.3646 81.076C71.6642 83.2996 71.839 85.5357 72.1635 87.7467C72.2385 88.2366 72.6754 89.0406 72.9875 89.0532C73.5867 89.0909 74.4605 88.8522 74.785 88.3999C75.4092 87.5205 75.7338 86.4276 76.1458 85.498C80.103 85.1085 83.3987 86.5909 86.6693 88.1361C87.0438 88.312 87.4059 88.5255 87.7179 88.8019C90.2146 91.0003 92.6863 93.2113 95.1206 95.3847C95.0582 96.2389 94.5339 96.3143 93.9471 96.264C90.0773 95.95 86.1949 96.3896 82.3251 95.9374C81.5136 95.8369 80.6273 96.2138 79.8534 96.0128C77.6313 95.46 75.4342 95.661 73.2122 95.7741C71.839 95.8495 70.4158 96.1258 69.0926 95.3972C68.7431 95.2088 68.2188 95.0329 67.8817 95.1585C65.0979 96.2012 62.3391 95.1208 59.5677 95.0831C56.6216 95.0455 53.7005 95.1208 50.7669 95.46C48.832 95.6861 46.8596 95.6359 44.9121 95.5354C42.5652 95.4223 40.2558 94.656 37.8965 95.6108C37.3347 95.8369 36.5358 95.4977 35.8492 95.3972C32.6534 94.9701 29.4701 94.6309 26.2868 95.4726C25.2133 95.7615 24.1771 95.6987 23.0162 95.3721C21.4433 94.9198 19.7206 94.9324 18.0478 94.9073C15.6759 94.8821 13.3165 94.945 10.9447 95.0706C4.26604 95.4475 -2.41263 95.0455 -9.0788 94.7063C-11.5755 95.6485 -14.2969 94.4676 -16.856 95.7113C-17.9171 96.2263 -19.5649 95.6861 -20.9006 95.4098C-22.4486 95.0957 -23.9341 95.0329 -25.4696 95.3721C-26.4183 95.5856 -27.3421 95.5605 -28.3283 95.1711C-29.0149 94.8947 -29.9261 95.1711 -30.7376 95.259C-31.1371 95.2967 -31.6738 95.661 -31.9235 95.5103C-33.9583 94.2289 -36.0306 95.4223 -38.0654 95.3218C-39.863 95.2213 -41.6731 95.9876 -43.4457 95.146C-43.5706 95.0831 -43.7578 95.0203 -43.8577 95.0706C-46.6665 96.4901 -49.313 94.9952 -52.0343 94.6686C-53.3951 94.5053 -54.9555 95.1711 -56.1539 94.7188C-58.351 93.8771 -60.2485 94.9701 -62.2708 95.0831C-65.866 95.2841 -69.4238 95.7615 -72.8817 94.2038C-73.4684 93.94 -74.3298 93.9274 -74.9415 94.141C-79.3107 95.5982 -83.7423 94.3922 -88.1365 94.5555C-89.0728 94.5932 -89.9716 94.2038 -90.9328 94.7565C-92.1312 95.4349 -93.4295 95.2841 -94.5405 94.5555C-96.1759 93.4752 -97.6739 93.3118 -99.6588 93.8269C-102.455 94.5555 -105.476 93.8897 -108.322 94.7691C-108.684 94.8821 -109.171 94.7691 -109.558 94.6309C-112.791 93.5003 -116.099 93.9651 -119.408 94.0153C-121.754 94.053 -124.076 94.1033 -126.473 93.6385C-129.145 93.1234 -132.003 93.5882 -134.775 93.6762C-135.461 93.7013 -136.248 94.1661 -136.81 93.9651C-139.656 92.9098 -142.577 94.2415 -145.436 93.5254C-146.484 93.2616 -147.745 93.2993 -148.756 93.651C-151.415 94.5806 -154.074 94.254 -156.646 93.7013C-160.541 92.8721 -164.46 93.1988 -168.368 93.0857C-173.236 92.9475 -178.105 93.0355 -182.973 93.048C-184.496 93.048 -186.032 93.0732 -187.555 93.0857C-188.678 93.0983 -189.802 93.1485 -190.913 93.0983C-195.245 92.8973 -199.564 92.6335 -203.883 92.445C-206.392 92.332 -208.901 92.5455 -211.398 91.8671C-212.434 91.5782 -213.62 91.9174 -214.744 91.8546C-219.762 91.5782 -224.78 91.2516 -229.799 90.9627C-231.422 90.8747 -236.74 90.322 -240.959 90.1712C-242.12 89.9577 -243.281 89.7441 -244.741 89.4677C-244.242 88.5507 -244.092 87.6964 -243.63 87.106Z" fill="url(#paint1_linear_2102_1957)"/>
<path opacity="0.6" d="M218.733 11.1C219.911 9.68021 220.556 8.38268 220.752 7.11337C220.911 6.05091 221.406 5.1953 221.724 4.23627C222.687 1.37797 224.341 -1.14183 225.856 -3.73687C226.108 -4.16937 226.463 -4.59249 226.875 -4.90277C228.95 -6.45415 230.604 -8.51325 233.007 -9.66033C233.614 -9.9518 234.11 -10.4689 234.652 -10.892C234.857 -11.0519 235.026 -11.3433 235.25 -11.3715C237.362 -11.6536 239.026 -13.0075 240.971 -13.6751C241.373 -13.8161 241.887 -14.0418 242.223 -13.9102C244.298 -13.1016 246.308 -14.1076 248.346 -14.0418C249.729 -13.9948 251.122 -13.9478 252.505 -13.8632C253.449 -13.8067 254.347 -13.5717 255.347 -13.6751C256.123 -13.7597 256.973 -13.2144 257.777 -12.8947C258.413 -12.6409 259.002 -12.246 259.647 -12.0015C261.451 -11.3245 263.218 -10.6099 264.592 -9.1996C264.713 -9.07737 264.844 -8.94574 265.003 -8.87992C269.321 -6.99006 271.247 -3.04111 273.388 0.682198C274.715 2.98576 274.893 5.59962 274.631 8.22286C274.519 9.33233 274.341 10.4418 274.257 11.5607C274.229 11.965 274.388 12.3787 274.453 12.8018C275.201 12.6137 275.248 12.0496 275.304 11.5607C275.491 9.84945 275.631 8.13824 275.781 6.42702C275.827 5.90989 275.865 5.39275 275.902 4.88503C275.958 4.10464 276.416 3.66272 277.145 3.38065C279.155 2.60966 281.127 3.05158 283.09 3.5405C283.763 3.70974 284.418 4.00122 285.053 4.30209C286.016 4.7534 286.867 5.34576 287.343 6.3424C287.885 7.48948 288.914 8.4203 289.035 9.73662C287.39 10.8367 285.726 11.8051 284.249 12.9992C283.258 13.7984 282.548 14.9361 281.557 16.0926C282.81 16.3464 283.576 15.7071 284.352 15.2934C284.96 14.9737 285.446 14.4284 285.997 13.9959C287.446 12.8394 289.017 11.9368 290.877 11.523C292.326 11.2034 293.746 10.7521 295.167 10.3102C298.439 9.29472 301.682 8.34509 305.104 9.77423C305.805 10.0657 306.655 9.98109 307.422 10.1597C311.151 11.0059 313.75 13.4129 316.003 16.243C316.919 17.3901 317.657 18.6688 318.517 19.8629C318.685 20.0979 319.013 20.2296 319.312 20.4458C319.994 19.1671 318.573 18.4525 318.788 17.2208C319.611 16.6567 320.489 16.0361 321.761 16.5157C322.069 16.6285 322.537 16.6943 322.78 16.5439C323.873 15.8575 324.817 16.4687 325.789 16.7789C326.21 16.9106 326.575 17.2491 326.986 17.3149C328.79 17.6157 329.594 18.9697 330.36 20.3142C331.192 21.781 331.529 23.3887 331.015 25.0341C330.716 25.9838 330.379 26.877 329.304 27.4976C328.117 28.1745 327.397 29.4909 326.014 30.0738C323.453 31.1457 320.91 31.9355 318.05 31.2867C316.302 30.8918 314.657 30.2901 313.049 29.5849C312.451 29.3216 312.021 28.7104 311.404 28.1557C311.198 28.1839 310.815 28.1463 310.516 28.2779C308.188 29.2934 305.786 29.5378 303.253 29.331C301.327 29.1712 299.383 29.0771 297.457 28.9737C294.588 28.8233 292.111 27.8643 289.783 26.4727C288.932 25.965 288.082 25.6641 287.11 25.4008C286.642 26.2753 287.923 26.6608 287.727 27.4317C287.624 27.5634 287.549 27.7608 287.418 27.8078C285.175 28.5694 282.931 29.3874 280.501 29.3498C278.903 29.331 277.304 29.2276 275.706 29.2276C274.07 29.2276 272.556 28.607 271.154 28.0147C269.163 27.1685 267.218 26.2282 265.124 25.5983C265.311 23.9341 267.172 23.8589 267.751 22.4767C267.358 22.5426 267.013 22.5144 266.77 22.646C264.106 24.1598 261.451 25.6923 258.778 27.2061C258.478 27.3753 258.114 27.4599 257.777 27.5634C255.665 28.2215 253.562 28.8797 251.44 29.5002C250.935 29.6507 250.393 29.6977 249.869 29.7541C248.981 29.8387 248.093 29.8575 247.215 29.961C245.383 30.1772 243.569 30.243 241.728 30.0644C239.812 29.8763 237.839 30.4311 235.951 29.6037C235.577 29.4438 235.072 29.5285 234.633 29.5567C231.745 29.7165 229.034 28.8985 226.314 28.1651C224.781 27.7514 223.22 27.4411 221.696 27.0086C221.154 26.8488 220.687 26.4539 219.995 26.059C221.509 25.0248 222.64 23.9623 223.145 22.4955C222.79 21.8562 222.332 22.1383 221.958 22.2417C220.752 22.5896 219.649 23.1161 218.864 24.1221C218.649 24.3948 218.425 24.7333 218.125 24.8555C216.499 25.5231 215.106 26.6043 213.508 27.3001C212.218 27.8642 210.853 28.2591 209.507 28.6917C208.086 29.1524 206.628 29.4156 205.132 29.6601C203.216 29.9704 201.272 30.1302 199.365 30.4593C198.542 30.6003 197.795 30.5533 197 30.3841C196.14 30.196 195.252 30.1208 194.374 30.008C194.028 29.961 193.626 30.0174 193.327 29.8857C191.934 29.237 190.476 29.0677 188.933 29.0019C188.017 28.9643 187.082 28.4566 186.223 28.0335C185.26 27.554 184.288 27.4129 183.166 27.4505C184.054 29.1994 184.166 29.284 187.213 30.4969C185.811 31.6158 184.026 31.5594 182.409 31.926C181.053 32.2269 179.614 32.1705 178.212 32.2645C177.314 32.3209 176.482 32.1611 175.604 31.9166C174.819 31.7004 173.893 32.1611 173.071 31.6158C172.809 31.4371 172.332 31.3619 172.042 31.4559C170.668 31.8978 169.706 31.2115 168.64 30.5345C167.64 29.8951 166.256 29.8576 165.565 28.6729C165.443 28.4754 164.91 28.419 164.574 28.4284C163.873 28.4378 163.377 28.2121 163.05 27.601C162.966 27.4505 162.873 27.2249 162.742 27.1967C160.854 26.736 160.255 24.9589 159.031 23.8307C157.816 22.7024 156.628 21.5459 155.385 20.4552C155.17 20.2672 154.684 20.1638 154.441 20.2766C154.207 20.38 153.992 20.8031 153.992 21.0852C153.983 22.063 154.348 22.9751 154.983 23.7085C156.451 25.4009 157.554 27.4223 159.713 28.5036C160.452 28.8703 160.283 29.6789 159.479 30.102C157.778 31.0046 155.909 31.0892 154.039 31.1174C153.422 31.1268 152.787 30.9388 152.179 30.9858C149.739 31.1833 147.664 30.243 145.655 29.0866C145.524 29.0113 145.468 28.8045 145.318 28.56C146.692 27.648 148.431 27.1027 149.263 25.4761C149.02 25.429 148.795 25.3162 148.683 25.3726C145.795 26.9898 142.523 27.3941 139.345 28.0147C138.074 28.2591 136.728 28.2686 135.447 28.607C135.073 28.7105 131.961 28.1557 131.624 27.9865C130.53 27.4223 129.446 26.83 128.343 26.3035C127.885 26.0872 127.371 25.9744 126.885 25.824C126.474 25.6923 125.894 25.7111 125.67 25.4385C124.931 24.5358 123.856 24.0939 122.978 23.3982C122.65 23.1443 122.417 22.7494 122.202 22.3827C122.034 22.0912 122.034 21.6587 121.809 21.4425C119.93 19.5714 119.968 17.0516 119.51 14.7574C119.155 13.0086 119.678 11.1752 120.482 9.52976C121.547 7.36724 122.819 5.29873 124.455 3.50289C125.66 2.17716 127.072 1.05831 128.67 0.146286C130.119 -0.681114 131.577 -1.41452 133.241 -1.66838C134.793 -1.89403 136.344 -2.07268 137.906 -2.23252C141.336 -2.58981 144.514 -1.56494 147.618 -0.361446C150.02 0.578785 151.843 2.32762 153.254 4.46194C153.721 5.16711 154.217 5.85347 154.768 6.62446C155.367 5.65602 155.497 4.88504 154.899 4.07644C154.647 3.73796 154.46 3.34307 154.217 2.99518C153.394 1.78229 152.572 0.578777 151.581 -0.869179C150.188 -1.04782 148.842 -1.98804 147.505 -2.94707C146.206 -3.8779 144.72 -4.36684 143.14 -4.6113C142.448 -4.72413 141.747 -4.88395 141.056 -4.88395C139.897 -4.89335 139.205 -5.40107 139.046 -6.50114C138.803 -8.19356 137.803 -9.68854 137.943 -11.5126C138.111 -13.6845 138.317 -15.7718 139.569 -17.6429C139.999 -18.2822 140.308 -19.0062 140.654 -19.6926C141.701 -21.7517 143.757 -22.8329 145.309 -24.4031C145.757 -24.8544 146.533 -25.0331 147.188 -25.2493C148.337 -25.6254 149.496 -25.9733 150.674 -26.2554C151.254 -26.3964 151.871 -26.4528 152.46 -26.3964C153.918 -26.2742 155.385 -26.1425 156.815 -25.8887C158.115 -25.6536 159.264 -25.2493 159.592 -23.6227C159.825 -22.4757 160.564 -21.432 161.012 -20.3225C161.957 -17.9626 163.536 -16.1385 165.481 -14.5025C166.462 -13.6751 167.387 -12.7725 168.518 -12.1425C169.182 -11.7664 169.902 -11.3809 170.799 -12.0767C170.603 -12.3494 170.481 -12.6973 170.238 -12.8571C168.78 -13.8161 167.369 -14.7752 166.499 -16.3736C166.154 -17.0129 165.284 -17.3608 164.864 -17.9814C163.863 -19.4763 162.76 -20.9807 162.134 -22.6355C161.452 -24.4501 161.134 -26.434 160.872 -28.3709C160.62 -30.2232 160.489 -32.113 161.078 -33.9653C161.284 -34.614 161.349 -35.3192 161.377 -36.0056C161.48 -38.3655 162.452 -40.434 163.555 -42.4461C164.004 -43.2547 164.836 -43.8377 164.966 -44.8625C164.994 -45.0788 165.284 -45.2574 165.406 -45.4831C166.069 -46.6208 167.649 -46.8464 168.098 -48.1721C168.518 -49.4226 169.986 -49.6201 170.594 -50.7014C170.734 -50.9458 171.173 -51.0304 171.482 -51.1715C172.659 -51.6792 173.865 -52.1399 175.015 -52.704C177.352 -53.8229 179.894 -54.2742 182.353 -54.9888C183.091 -55.2051 183.839 -55.3555 184.577 -55.5529C185.157 -55.7128 185.699 -55.882 186.335 -55.694C186.718 -55.5811 187.213 -55.5905 187.587 -55.7222C188.625 -56.0983 189.56 -56.1735 190.494 -55.4307C190.719 -55.2521 191.177 -55.2239 191.466 -55.3179C192.177 -55.5623 192.784 -55.4025 193.439 -55.1204C193.887 -54.923 194.467 -54.782 194.925 -54.876C196.439 -55.2145 197.767 -54.7631 199.075 -54.105C199.3 -53.9922 199.533 -53.7947 199.767 -53.7947C201.496 -53.7947 202.814 -52.8545 204.207 -51.9989C204.852 -51.604 205.656 -51.4818 206.338 -51.1527C206.862 -50.8988 207.572 -50.6073 207.74 -50.1654C208.292 -48.6893 209.479 -48.1157 210.638 -47.7208C211.143 -46.837 211.451 -46.0096 211.993 -45.3891C213.022 -44.2138 213.62 -42.8128 214.368 -41.4683C215.592 -39.2776 216.106 -36.8424 216.845 -34.5012C217.265 -33.1567 217.097 -31.6241 217.125 -30.1761C217.153 -28.982 217.041 -27.788 217.078 -26.6033C217.088 -26.3776 217.49 -26.0109 217.733 -25.9827C217.995 -25.9545 218.453 -26.2084 218.537 -26.434C219.406 -28.982 221.547 -30.0351 223.781 -31.0411C226.706 -32.3575 229.67 -32.1036 232.661 -31.389C233.315 -31.2292 233.941 -30.8813 234.54 -30.5616C235.147 -30.2419 235.671 -29.7436 236.297 -29.518C237.877 -28.9444 238.624 -27.7315 239.391 -26.3494C240.008 -25.2305 240.363 -24.0364 240.849 -22.8893C241.541 -21.2345 241.522 -19.4199 241.55 -17.6147C240.316 -16.5992 238.662 -17.0411 237.381 -16.2137C236.166 -15.4333 234.736 -14.982 233.259 -14.3239C232.156 -15.1419 230.913 -15.9128 229.838 -16.8719C227.837 -18.6677 225.36 -19.5703 222.902 -20.2755C220.21 -21.0465 217.368 -20.7832 214.695 -19.8336C210.928 -18.4985 207.843 -16.1855 205.31 -13.1392C204.88 -12.6314 204.628 -11.9827 204.291 -11.3998C201.982 -11.9357 199.711 -12.4622 197.439 -12.9981C194.775 -13.6281 192.065 -13.4494 189.382 -13.252C186.624 -13.0545 184.288 -11.616 181.839 -10.4971C181.53 -10.3561 181.268 -10.121 180.951 -9.98001C178.763 -8.98336 176.894 -7.59181 175.501 -5.64553C174.407 -4.12236 173.043 -2.77784 172.267 -1.03841C172.061 -0.577698 171.575 -0.15461 171.556 0.2967C171.491 1.68824 170.351 2.76013 170.472 4.22688C170.537 5.05429 170.136 5.90989 170.136 6.74669C170.126 8.19465 170.182 9.652 170.36 11.0906C170.584 12.877 170.911 14.654 171.295 16.4123C171.855 18.9979 173.398 21.0758 175.099 23.0597C175.333 23.3324 175.37 23.3041 176.688 23.2571C176.408 22.599 176.249 21.9314 175.884 21.4049C174.015 18.6688 173.529 15.519 172.958 12.4069C172.669 10.8085 173.501 6.65265 174.389 5.26112C174.949 4.3679 174.37 3.5969 174.473 2.64727C175.361 1.64123 176.314 0.625805 176.866 -0.793941C177.333 -1.98803 178.483 -2.9847 179.474 -3.92492C180.567 -4.97798 181.53 -6.13447 182.857 -7.01829C185.007 -8.45684 187.4 -9.21841 189.765 -10.0646C190.85 -10.4595 192.111 -10.7604 193.364 -10.2997C193.747 -10.1586 194.261 -10.1586 194.654 -10.2715C197.477 -11.1459 199.945 -10.0176 202.44 -9.01157C203.16 -8.7201 203.861 -8.37222 204.572 -8.04313C204.889 -7.8927 205.263 -7.79868 205.497 -7.57302C208.039 -5.11902 210.89 -2.92829 212.554 0.2967C212.816 0.795021 212.844 0.776234 213.657 1.02069C214.031 0.475361 213.62 0.0522499 213.424 -0.399063C213.031 -1.34869 212.629 -2.30773 212.199 -3.24796C211.264 -5.32587 210.031 -7.13111 207.955 -8.3064C207.151 -8.75771 206.497 -9.49107 205.693 -10.168C206.572 -11.6912 207.787 -12.7537 209.021 -13.7785C209.75 -14.3897 210.573 -14.8786 211.367 -15.4239C212.078 -15.9129 212.76 -16.477 213.704 -16.4488C213.788 -16.4488 213.9 -16.4676 213.956 -16.5146C215.742 -18.1318 218.079 -17.5206 220.144 -17.972C220.855 -18.1224 221.668 -17.8403 222.425 -17.7181C225.575 -17.2292 228.043 -15.5179 230.249 -13.3742C230.473 -13.1486 230.548 -12.7819 230.726 -12.4246C227.52 -9.9236 224.874 -6.98066 222.743 -3.61463C221.126 -1.05721 219.864 1.70706 219.284 4.65938C218.808 6.59626 218.032 8.59895 218.733 11.1Z" fill="url(#paint2_linear_2102_1957)"/>
<path opacity="0.6" d="M320.157 109.797C321.067 110.556 321.796 111.168 322.514 111.77C322.589 111.833 322.653 111.96 322.728 111.96C324.378 111.928 325.417 112.941 326.382 114.049C327.26 115.062 328.492 115.632 329.253 116.856C329.982 118.027 331.578 118.639 331.696 120.286C332.832 121.267 333.324 122.639 334.021 123.894C334.492 124.739 334.792 125.646 334.674 126.902C334.224 126.67 333.871 126.596 333.678 126.374C332.467 125.002 330.957 123.873 330.207 122.122C330.035 121.721 329.574 121.425 329.199 121.14C328.899 120.908 328.385 120.866 328.214 120.581C327.057 118.629 325.096 117.553 323.424 116.139C322.696 115.526 322.16 114.682 321.56 113.923C320.874 113.047 320.028 112.424 318.871 112.414C317.864 112.403 316.921 112.319 316.117 111.643C316.042 111.58 315.946 111.485 315.871 111.496C314.189 111.77 312.71 110.852 311.157 110.715C309.41 110.556 307.717 110.24 306.025 109.881C305.939 109.86 305.832 109.733 305.767 109.754C304.289 110.261 302.821 110.873 301.31 109.839C299.8 110.187 298.3 110.546 296.778 110.873C296.125 111.01 295.45 111.105 294.775 111.137C293.425 111.189 292.257 111.675 291.432 112.677C290.457 113.87 289.278 114.64 287.757 114.83C286.91 114.936 286.343 115.347 285.775 115.917C284.06 117.626 282.314 119.294 280.589 120.982C280.321 121.246 280.085 121.562 279.914 121.89C278.896 123.947 277.91 126.015 276.903 128.084C276.86 128.168 276.796 128.253 276.785 128.348C276.518 130.236 276.025 132.136 276.089 134.014C276.121 135.08 276.143 136.072 275.885 137.095C275.768 137.56 275.521 138.056 275.596 138.499C276.046 141.221 276.26 143.986 277.182 146.614C277.31 146.972 277.61 147.289 277.643 147.648C277.889 150.349 279.485 152.438 280.878 154.623C281.703 155.91 282.668 157.113 283.803 158.696C282.957 158.611 282.378 158.728 282.1 158.495C281.146 157.683 280.15 156.86 279.453 155.847C278.425 154.338 277.696 152.649 276.764 151.077C275.832 149.515 274.836 147.996 274.503 146.202C274.075 146.139 273.775 146.012 273.507 146.065C270.507 146.635 267.796 147.89 265.257 149.526C264.871 149.779 264.593 150.222 264.293 150.592C263.746 151.257 263.189 151.921 262.696 152.628C262.053 153.567 261.186 154.412 261.207 155.678C261.207 155.857 261.111 156.058 261.014 156.216C259.696 158.453 259.107 160.796 259.878 163.371C259.975 163.708 259.814 164.12 259.761 164.5C259.718 164.785 259.589 165.069 259.6 165.354C259.611 166.389 260.811 167.127 260.328 168.32C259.943 169.28 260.253 170.177 260.746 171.074C261.014 171.549 261.003 172.182 261.132 172.741C261.196 173.015 261.228 173.374 261.411 173.543C262.236 174.313 263.361 174.841 263.403 176.17C264.4 176.677 264.796 177.722 265.525 178.471C265.932 178.882 266.403 179.262 266.918 179.526C268.203 180.191 269.543 180.782 270.85 181.426C272.061 182.016 273.186 182.861 274.461 183.188C275.993 183.589 277.45 184.528 279.26 183.705C280.139 183.304 281.371 183.61 282.432 183.705C283.739 183.831 284.96 183.768 286.15 182.85C285.571 181.658 285.089 180.412 284.403 179.283C283.032 177.025 282.357 174.577 281.971 172.023C281.918 171.665 281.928 171.665 282.871 171.126C283.493 172.414 284.264 173.648 284.693 174.999C285.635 177.933 287.328 180.486 288.689 183.209C289.064 183.958 289.793 184.517 290.296 185.203C291.721 187.134 293.5 188.759 295.021 190.606C296.028 191.83 297.539 192.695 298.921 193.582C300.539 194.616 302.21 195.576 303.935 196.41C304.653 196.758 305.639 196.526 306.41 196.811C307.107 197.064 307.621 197.877 308.317 198.045C309.217 198.267 310.225 198.098 311.542 198.098C311.917 198.351 312.55 199.027 313.31 199.238C314.103 199.449 315.024 199.122 315.882 199.174C317.114 199.259 318.432 198.763 319.578 199.628C319.771 199.776 320.189 199.85 320.382 199.744C322.299 198.773 324.71 199.438 326.467 197.877C326.842 197.539 327.56 197.539 328.128 197.476C329.992 197.275 331.749 196.874 333.067 195.376C333.367 195.038 333.881 194.837 334.331 194.711C334.964 194.531 335.339 194.225 335.51 193.592C335.735 192.759 336.367 192.358 337.181 192.136C338.617 191.746 339.946 191.229 340.685 189.793C340.889 189.403 341.414 189.16 341.778 188.844C342.078 188.591 342.528 188.379 342.624 188.063C343.546 185.182 346.31 183.715 347.896 181.362C348.099 181.056 348.196 180.666 348.314 180.307C348.56 179.537 349.021 178.956 349.76 178.597C350.66 178.872 350.66 179.653 350.489 180.254C349.889 182.333 350.028 184.718 348.11 186.29C347.542 187.81 346.503 188.844 345.014 189.561C344.446 189.836 343.878 190.448 343.674 191.028C343.064 192.769 341.789 193.888 340.353 194.901C340.203 195.006 340.139 195.217 340.042 195.376C340.76 196.093 341.467 196.832 342.206 197.539C342.86 198.151 343.578 198.615 344.553 198.278C345.496 197.961 346.246 198.267 346.964 198.89C347.317 199.196 347.831 199.597 348.206 199.533C350.724 199.122 353.146 200.304 355.653 199.924C357.646 199.618 359.681 199.544 361.642 198.974C362.563 198.7 363.678 198.858 364.481 198.425C368.071 196.494 372.185 195.661 375.485 193.17C376.642 192.294 377.853 191.482 378.967 190.564C379.942 189.762 380.895 189.023 382.031 188.401C383.349 187.683 384.56 186.638 385.438 185.319C385.674 184.961 386.167 184.771 386.713 184.37C387.024 185.963 385.567 186.438 385.16 187.44C384.774 188.379 383.97 189.171 383.263 189.973C382.524 190.817 381.688 191.587 380.842 192.442C382.224 192.949 383.37 193.392 384.538 193.772C384.988 193.919 385.481 194.004 385.963 194.014C387.42 194.046 388.899 193.898 390.292 194.5C393.013 194.13 395.638 195.418 398.37 194.975C398.649 194.932 399.013 195.112 399.217 194.996C400.127 194.458 400.974 194.035 402.174 194.152C403.181 194.247 404.252 193.761 405.27 193.466C405.72 193.339 406.106 193.012 406.545 192.822C407.349 192.495 408.249 192.326 408.956 191.872C409.674 191.408 410.274 190.88 411.152 190.564C412.363 190.131 413.424 189.266 414.538 188.601C414.345 188.274 414.281 188 414.152 187.968C413.413 187.767 412.438 187.852 411.945 187.409C410.392 185.995 408.345 185.488 406.663 184.359C406.363 184.159 406.213 183.758 405.977 183.452C405.688 183.072 405.474 182.502 405.099 182.365C403.481 181.805 402.87 180.381 401.863 179.231C400.931 178.154 399.881 177.173 399.088 175.97C398.66 175.326 398.67 174.725 399.11 173.912C399.592 174.144 400.235 174.239 400.535 174.619C402.86 177.584 406.117 179.389 409.213 181.362C411.988 183.135 415.106 184.348 418.288 185.203C420.302 185.752 422.445 185.942 424.577 185.9C426.324 185.868 428.081 186.047 429.816 185.689C430.481 185.551 431.188 185.499 431.766 185.203C432.441 184.866 433.02 184.813 433.716 185.066C434.07 185.193 434.552 185.298 434.852 185.161C435.538 184.834 436.106 184.285 436.791 183.958C437.381 183.673 438.066 184.338 438.741 183.789C440.306 182.523 442.449 182.143 443.799 180.529C443.916 180.391 444.12 180.275 444.302 180.233C446.113 179.874 446.949 178.334 447.966 177.12C448.931 175.959 449.402 174.45 450.591 173.395C450.902 173.121 450.902 172.509 451.009 172.034C451.181 171.285 451.116 170.409 451.502 169.797C452.756 167.771 452.906 165.46 453.398 163.244C453.516 162.706 453.506 162.104 453.441 161.556C453.27 160.015 453.227 158.485 453.741 157.134C453.195 155.161 451.952 153.567 451.909 151.573C451.898 151.235 451.62 150.845 451.352 150.581C450.238 149.494 449.37 148.27 448.652 146.909C448.459 146.529 448.009 146.17 447.602 146.033C446.456 145.653 445.674 144.862 444.752 144.155C443.231 142.994 441.388 142.245 439.684 141.327C439.384 141.158 439.084 140.989 438.806 140.841C438.913 140.578 438.956 140.451 438.977 140.451C441.066 140.694 443.209 140.609 445.116 141.844C446.059 142.456 447.259 142.678 448.245 143.036C448.931 142.699 449.027 142.192 448.866 141.749C448.448 140.557 448.963 139.28 448.288 138.077C447.773 137.169 447.645 136.04 446.488 135.607C446.402 135.576 446.306 135.502 446.263 135.428C445.609 134.468 445.106 133.37 444.291 132.579C443.488 131.798 442.341 131.387 441.431 130.701C441.056 130.416 440.831 129.983 440.252 130.004C439.984 130.015 439.577 129.92 439.47 129.73C438.377 127.904 436.62 128.031 434.852 128.115C434.381 128.136 433.716 128.305 433.449 128.063C432.195 126.955 430.834 127.567 429.527 127.735C427.995 127.925 426.484 128.337 424.952 128.537C423.913 128.675 423.12 129.139 422.413 129.825C421.513 133.138 421.481 136.789 418.556 139.311C417.956 138.784 417.892 138.172 418.095 137.475C418.449 136.272 418.813 135.08 419.124 133.866C419.799 131.239 420.12 128.601 419.745 125.878C419.563 124.57 419.531 123.24 419.306 121.921C418.813 119.04 417.259 116.782 415.524 114.566C414.999 113.901 414.656 113.036 414.013 112.551C412.32 111.274 410.595 109.987 408.71 109.005C407.102 108.172 405.281 107.823 403.395 107.887C401.66 107.95 399.913 107.823 398.167 107.834C397.417 107.834 396.656 107.961 395.724 108.045C396.035 109.438 396.292 110.63 396.56 111.823C396.967 113.595 397.427 115.358 397.77 117.141C397.952 118.08 398.156 119.104 397.952 120.001C397.427 122.312 398.102 124.813 396.827 126.997C396.688 127.229 396.506 127.44 396.356 127.651C395.627 127.588 395.724 126.976 395.531 126.606C395.349 126.269 395.177 125.889 395.156 125.52C395.049 124 395.081 122.459 394.888 120.95C394.674 119.357 394.792 117.742 394.342 116.149C393.956 114.788 394.052 113.289 393.795 111.875C393.624 110.957 393.399 109.902 392.81 109.248C392.113 108.478 391.674 107.676 391.492 106.747C391.128 104.9 389.852 103.507 389.092 101.861C388.835 101.302 388.128 100.954 387.645 100.489C386.574 99.4448 384.731 99.1494 384.442 97.3344C383.124 96.8595 382.545 95.8043 382.149 94.5802C382.074 94.3481 381.753 94.1792 381.517 93.9998C379.706 92.5964 377.949 91.1402 375.603 90.5387C374.531 90.2643 373.545 89.4729 372.645 88.7659C371.778 88.0905 370.942 87.584 369.785 87.4996C368.628 87.4258 367.471 87.1831 366.56 86.3178C366.303 86.0751 365.874 85.8851 365.51 85.864C363.571 85.7479 361.696 85.252 359.703 85.2731C357.967 85.2836 356.253 86.0223 354.506 85.4947C352.867 84.9987 351.217 85.3786 349.578 85.4103C348.71 85.4208 347.906 85.4208 347.114 86.054C346.589 86.4655 345.624 86.2861 344.906 86.5288C342.817 87.2569 340.717 87.985 338.692 88.882C337.374 89.4729 336.067 90.2221 334.974 91.1507C333.935 92.0371 333.003 92.9657 331.621 93.3245C331.289 93.4089 330.967 93.7677 330.764 94.0737C330.046 95.1395 329.135 95.9203 327.957 96.5218C327.324 96.8489 326.896 97.6087 326.467 98.2313C325.985 98.9383 325.749 99.8669 325.149 100.447C322.61 102.874 321.678 106.146 320.232 109.153C320.135 109.332 320.178 109.543 320.157 109.797Z" fill="url(#paint3_linear_2102_1957)"/>
</g>
<defs>
<linearGradient id="paint0_linear_2102_1957" x1="180" y1="0" x2="180" y2="800" gradientUnits="userSpaceOnUse">
<stop stop-color="#336B6C"/>
<stop offset="1" stop-color="#133133"/>
</linearGradient>
<linearGradient id="paint1_linear_2102_1957" x1="-74.8104" y1="-18.4827" x2="-74.8104" y2="96.276" gradientUnits="userSpaceOnUse">
<stop stop-color="#E0E0E0"/>
<stop offset="1" stop-color="white" stop-opacity="0"/>
</linearGradient>
<linearGradient id="paint2_linear_2102_1957" x1="225.328" y1="-56" x2="225.328" y2="32.2759" gradientUnits="userSpaceOnUse">
<stop stop-color="#E0E0E0"/>
<stop offset="1" stop-color="white" stop-opacity="0"/>
</linearGradient>
<linearGradient id="paint3_linear_2102_1957" x1="356.638" y1="85.2415" x2="356.638" y2="200" gradientUnits="userSpaceOnUse">
<stop stop-color="#E0E0E0"/>
<stop offset="1" stop-color="white" stop-opacity="0"/>
</linearGradient>
<clipPath id="clip0_2102_1957">
<rect width="360" height="800" fill="white"/>
</clipPath>
</defs>
</svg>
