<svg width="360" height="800" viewBox="0 0 360 800" fill="none" xmlns="http://www.w3.org/2000/svg">
<g clip-path="url(#clip0_2102_2194)">
<rect width="360" height="800" fill="url(#paint0_linear_2102_2194)"/>
<path opacity="0.6" d="M-287.079 87.106C-284.594 83.9402 -281.149 82.483 -277.304 81.9428C-276.543 81.8297 -275.694 82.2694 -274.82 82.4704C-275.269 83.2995 -275.644 84.003 -276.143 84.9452C-275.544 84.9829 -275.095 85.1462 -274.87 84.9955C-273.047 83.7141 -270.938 82.6337 -269.552 80.9629C-267.966 79.066 -265.932 78.4002 -263.872 77.659C-261.775 76.9053 -259.603 76.4907 -257.306 76.9429C-254.722 77.458 -252 77.0309 -249.454 78.1238C-248.13 78.6891 -247.044 79.3047 -246.083 80.4479C-244.76 82.0056 -243.561 83.8146 -241.639 84.6312C-240.553 84.1789 -240.715 83.3875 -240.977 82.8096C-241.614 81.4026 -241.951 79.8449 -242.563 78.5133C-243.986 75.4731 -242.588 72.6968 -242.35 69.8451C-242.276 68.8778 -241.352 67.9356 -240.715 67.0563C-238.281 63.7021 -235.934 60.26 -231.577 59.0917C-230.304 58.7525 -229.155 58.5766 -227.907 59.0289C-226.746 59.4434 -225.548 59.7449 -224.162 60.1595C-224.574 62.6217 -226.01 64.9207 -225.323 67.5085C-224.674 68.1869 -223.825 68.6517 -223.238 67.6593C-222.552 66.4784 -222.015 65.1468 -221.703 63.8026C-221.091 61.2147 -220.729 58.5515 -218.594 56.642C-218.395 56.4661 -218.245 56.1897 -218.145 55.9385C-216.347 51.0894 -212.19 48.6899 -208.133 46.1775C-204.438 43.8911 -200.131 43.0368 -196.299 41.052C-195.475 40.6248 -194.401 40.6876 -193.44 40.5746C-192.616 40.4741 -191.718 40.6374 -190.981 40.361C-189.845 39.9213 -188.834 40.0721 -187.71 40.2982C-186.212 40.5997 -184.652 40.6248 -183.141 40.8635C-182.205 41.0143 -181.019 41.0394 -180.42 41.6173C-179.072 42.9112 -177.861 42.258 -176.388 41.7052C-173.766 44.0041 -170.72 45.5242 -167.15 46.0895C-165.053 46.4161 -164.192 48.8784 -161.957 49.4563C-160.035 49.9588 -158.899 51.7929 -158.349 53.8154C-158.249 54.2049 -158 54.7074 -157.688 54.8456C-154.829 56.1018 -153.993 58.9284 -152.432 61.5414C-153.094 62.1443 -153.855 62.7097 -154.442 63.4257C-154.754 63.8152 -155.066 64.594 -154.879 64.9207C-154.579 65.4608 -153.868 66.1141 -153.356 66.1015C-151.845 66.0638 -150.248 65.9633 -148.862 65.4231C-147.214 64.7699 -145.716 64.3176 -144.068 65.197C-143.831 65.3226 -143.506 65.4357 -143.257 65.3855C-138.438 64.5187 -135.867 68.1241 -133.195 70.9255C-130.162 74.0913 -129.949 78.262 -130.911 82.4579C-131.123 83.3749 -131.472 84.2669 -131.959 85.812C-130.936 85.3095 -130.311 85.2216 -130.124 84.8824C-129.463 83.6639 -128.676 82.4076 -128.451 81.076C-128.014 78.5886 -127.902 76.0384 -127.727 73.5134C-127.627 72.0561 -128.214 70.8501 -129.101 69.6441C-133.095 64.2297 -138.488 61.5288 -145.079 61.0012C-146.303 60.9007 -147.514 60.6871 -148.762 60.5238C-150.422 56.0516 -152.794 52.3331 -156.639 49.7201C-157.201 49.3432 -157.763 48.7653 -158.025 48.1498C-159.111 45.6121 -161.333 44.4815 -163.567 43.3006C-165.54 42.258 -167.425 41.052 -169.422 40.0595C-171.282 39.1299 -173.055 37.9365 -175.277 37.8737C-176.088 37.8485 -176.887 37.434 -177.686 37.1576C-178.21 36.9817 -178.76 36.7933 -179.234 36.5169C-180.645 35.7129 -182.243 35.4742 -183.716 35.7632C-187.673 36.5295 -191.842 34.4692 -195.662 36.7305C-196.137 37.0194 -196.686 37.4591 -197.16 37.4214C-199.832 37.1576 -201.867 38.8158 -204.201 39.5696C-209.469 41.2781 -213.439 44.7076 -216.897 48.803C-218.944 51.2401 -220.629 53.9787 -222.439 56.5289C-223.95 55.9762 -225.36 55.4486 -227.046 54.833C-226.996 54.0792 -226.996 53.1371 -226.858 52.2074C-226.584 50.4236 -226.322 48.6271 -225.885 46.8809C-225.435 45.0719 -223.613 44.1549 -222.964 42.3208C-221.79 38.9666 -219.393 36.3159 -216.859 33.929C-214.138 31.3663 -211.329 28.8287 -207.597 27.7609C-207.459 27.7232 -207.322 27.6855 -207.21 27.5976C-203.739 24.9092 -199.52 24.4569 -195.438 23.5148C-192.779 22.9118 -190.145 23.0499 -187.498 23.2132C-185.825 23.3138 -184.165 23.6278 -182.517 23.9293C-181.868 24.0549 -181.269 24.4318 -180.42 24.7836C-181.706 27.4719 -183.441 29.8714 -183.067 33.125C-182.43 32.8738 -181.955 32.8361 -181.743 32.5723C-179.309 29.7206 -176.6 27.1202 -174.778 23.7534C-174.216 22.7233 -173.08 21.5173 -172.031 21.3163C-169.098 20.751 -167.375 18.3139 -164.841 17.2084C-163.567 16.6556 -162.356 15.7637 -161.033 15.5753C-158.824 15.2612 -156.614 15.0602 -154.554 14.1055C-154.205 13.9422 -153.73 13.9547 -153.331 14.0301C-148.288 15.0476 -143.107 15.5627 -138.376 17.7863C-136.878 18.4898 -135.48 19.4068 -134.019 20.1983C-133.42 20.5249 -132.771 20.7384 -132.196 20.9771C-131.422 20.3113 -131.897 19.8842 -132.271 19.5073C-135.28 16.4672 -138.688 14.1557 -142.782 12.7487C-145.953 11.6683 -148.987 10.2237 -152.382 9.95985C-152.619 9.94729 -152.832 9.64579 -153.081 9.45735C-153.531 8.66591 -152.882 8.15085 -152.482 7.67348C-148.862 3.37711 -145.154 -0.80619 -140.049 -3.40662C-139.187 -3.84631 -138.501 -4.61262 -137.664 -5.08999C-136.703 -5.64274 -135.679 -6.32111 -134.631 -6.43418C-132.509 -6.64774 -130.536 -7.2633 -128.551 -7.9668C-127.777 -8.24317 -126.928 -8.40648 -126.105 -8.43161C-121.923 -8.5698 -117.728 -8.34367 -113.596 -7.77836C-111.324 -7.47686 -109.177 -6.22062 -106.855 -5.34124C-107.042 -4.29856 -107.092 -3.45687 -107.354 -2.69056C-108.415 0.349558 -109.589 3.35199 -110.65 6.40467C-111.237 8.08804 -111.649 9.8091 -110.85 12.0955C-110.288 11.3166 -109.851 10.9397 -109.726 10.4875C-108.802 7.09561 -107.666 3.79167 -106.518 0.475182C-105.944 -1.19563 -105.007 -2.45187 -104.159 -3.85887C-102.124 -7.21305 -99.8518 -10.3034 -96.2191 -12.0873C-94.9833 -14.1601 -92.7362 -14.7631 -90.8263 -15.8812C-88.4919 -17.2379 -85.7081 -17.0118 -83.3237 -18.155C-78.58 -18.268 -73.8238 -18.4188 -69.0801 -18.4816C-67.6819 -18.5067 -66.3837 -18.0921 -65.0854 -17.3887C-63.6623 -16.6098 -62.0145 -16.2706 -60.479 -15.6676C-59.0684 -15.1148 -57.3456 -14.8008 -56.3844 -13.7958C-55.3358 -12.7028 -53.9876 -12.4642 -52.9639 -11.6853C-50.9916 -10.1904 -49.3687 -8.21805 -47.671 -6.38393C-47.0093 -5.66787 -46.6723 -4.58749 -45.9358 -4.00962C-43.4016 -2.03731 -42.6027 0.663622 -42.1782 3.67861C-41.9411 5.29917 -41.4542 6.84436 -40.6802 8.38954C-39.6441 10.4623 -40.0561 12.9874 -39.9437 15.3366C-39.8563 17.2963 -39.5817 19.2435 -39.307 21.1781C-39.2696 21.4419 -38.7328 21.8314 -38.4207 21.8314C-38.0837 21.8314 -37.5843 21.5299 -37.422 21.2158C-36.1487 18.7536 -35.7368 15.2612 -36.3734 11.4171C-36.5607 10.2739 -36.7854 9.21866 -36.1113 7.78654C-32.154 8.75385 -28.3466 9.87191 -25.001 11.8819C-21.7179 13.8542 -18.4971 16.0778 -16.0753 19.1933C-15.7383 19.6329 -15.3263 20.0475 -15.0891 20.5374C-14.3027 22.158 -11.806 21.8188 -11.4689 24.2434C-11.2442 25.8765 -9.74622 27.3212 -8.84741 28.8664C-6.27582 33.3135 -4.70291 37.9993 -5.68912 43.376C-6.12604 43.5645 -6.63785 44.0041 -7.12469 43.979C-12.6424 43.6021 -17.5234 45.8383 -22.4294 47.8106C-24.3394 48.5769 -25.9622 50.0718 -27.7349 51.1899C-28.434 51.6296 -29.2079 51.9185 -29.7822 52.1949C-32.1166 50.7879 -34.2263 49.4688 -36.3859 48.2377C-38.1086 47.2578 -39.9812 46.793 -41.991 46.6674C-44.0632 46.5292 -46.0981 46.0518 -48.1703 45.788C-54.7865 44.9589 -60.7037 46.6171 -66.4461 50.0969C-69.8041 52.1321 -71.6017 55.0089 -73.2246 58.2249C-74.1608 60.0967 -74.8974 62.0815 -75.6589 64.0287C-76.0459 65.0212 -76.2706 66.0638 -75.4217 67.6844C-74.9348 66.1015 -74.6727 65.0337 -74.2732 64.0287C-73.8613 62.986 -73.287 62.0187 -72.7877 61.0137C-69.8291 54.9712 -65.023 51.1899 -58.5565 49.7452C-55.161 48.9789 -51.6657 48.5141 -48.1953 48.3884C-46.0231 48.3131 -43.6513 48.7653 -41.6664 49.6447C-39.1448 50.7502 -36.4359 51.6798 -34.4011 53.7401C-33.9267 54.2174 -33.2276 54.5064 -32.591 54.7702C-31.3925 55.2727 -30.4313 55.9887 -29.7198 57.1194C-28.8584 58.4887 -27.4478 59.1419 -25.8249 59.8329C-25.0759 56.956 -27.0608 55.3732 -28.384 53.7401C-27.9471 52.0064 -26.4741 51.8934 -25.4754 51.2276C-20.2947 47.798 -14.415 46.5041 -8.36057 46.2905C-5.48938 46.19 -2.58072 47.0066 0.31543 47.3583C2.11304 47.5844 3.67349 48.1749 5.30884 49.1422C9.41589 51.5542 13.3731 54.1421 17.0932 57.1068C17.9296 57.7726 20.5761 61.2147 21.1753 62.1946C22.4236 64.2172 23.7219 66.2146 25.0327 68.1995C26.5432 70.4858 27.3296 72.8601 27.0924 75.7118C26.9426 77.458 27.6792 79.2796 27.9164 81.076C28.2159 83.2996 28.3907 85.5357 28.7153 87.7467C28.7902 88.2366 29.2271 89.0406 29.5392 89.0532C30.1384 89.0909 31.0122 88.8522 31.3368 88.3999C31.961 87.5205 32.2856 86.4276 32.6975 85.498C36.6548 85.1085 39.9504 86.5909 43.2211 88.1361C43.5956 88.312 43.9576 88.5255 44.2697 88.8019C46.7664 91.0003 49.2381 93.2113 51.6724 95.3847C51.61 96.2389 51.0856 96.3143 50.4989 96.264C46.6291 95.95 42.7467 96.3896 38.8768 95.9374C38.0654 95.8369 37.1791 96.2138 36.4051 96.0128C34.1831 95.46 31.986 95.661 29.7639 95.7741C28.3907 95.8495 26.9676 96.1258 25.6443 95.3972C25.2948 95.2088 24.7705 95.0329 24.4334 95.1585C21.6497 96.2012 18.8908 95.1208 16.1195 95.0831C13.1734 95.0455 10.2523 95.1208 7.31866 95.46C5.38373 95.6861 3.41132 95.6359 1.4639 95.5354C-0.882996 95.4223 -3.19241 94.656 -5.55179 95.6108C-6.11356 95.8369 -6.91248 95.4977 -7.59906 95.3972C-10.7948 94.9701 -13.9781 94.6309 -17.1614 95.4726C-18.235 95.7615 -19.2711 95.6987 -20.4321 95.3721C-22.005 94.9198 -23.7277 94.9324 -25.4005 94.9073C-27.7723 94.8821 -30.1317 94.945 -32.5036 95.0706C-39.1822 95.4475 -45.8609 95.0455 -52.527 94.7063C-55.0237 95.6485 -57.7451 94.4676 -60.3042 95.7113C-61.3653 96.2263 -63.0131 95.6861 -64.3488 95.4098C-65.8968 95.0957 -67.3823 95.0329 -68.9178 95.3721C-69.8665 95.5856 -70.7903 95.5605 -71.7765 95.1711C-72.4631 94.8947 -73.3744 95.1711 -74.1858 95.259C-74.5853 95.2967 -75.1221 95.661 -75.3717 95.5103C-77.4065 94.2289 -79.4788 95.4223 -81.5136 95.3218C-83.3112 95.2213 -85.1213 95.9876 -86.894 95.146C-87.0188 95.0831 -87.2061 95.0203 -87.3059 95.0706C-90.1147 96.4901 -92.7612 94.9952 -95.4826 94.6686C-96.8433 94.5053 -98.4037 95.1711 -99.6021 94.7188C-101.799 93.8771 -103.697 94.9701 -105.719 95.0831C-109.314 95.2841 -112.872 95.7615 -116.33 94.2038C-116.917 93.94 -117.778 93.9274 -118.39 94.141C-122.759 95.5982 -127.191 94.3922 -131.585 94.5555C-132.521 94.5932 -133.42 94.2038 -134.381 94.7565C-135.579 95.4349 -136.878 95.2841 -137.989 94.5555C-139.624 93.4752 -141.122 93.3118 -143.107 93.8269C-145.903 94.5555 -148.924 93.8897 -151.771 94.7691C-152.133 94.8821 -152.619 94.7691 -153.006 94.6309C-156.24 93.5003 -159.548 93.9651 -162.856 94.0153C-165.203 94.053 -167.525 94.1033 -169.921 93.6385C-172.593 93.1234 -175.452 93.5882 -178.223 93.6762C-178.91 93.7013 -179.696 94.1661 -180.258 93.9651C-183.104 92.9098 -186.025 94.2415 -188.884 93.5254C-189.932 93.2616 -191.193 93.2993 -192.204 93.651C-194.863 94.5806 -197.522 94.254 -200.094 93.7013C-203.989 92.8721 -207.909 93.1988 -211.816 93.0857C-216.684 92.9475 -221.553 93.0355 -226.422 93.048C-227.945 93.048 -229.48 93.0732 -231.003 93.0857C-232.127 93.0983 -233.25 93.1485 -234.361 93.0983C-238.693 92.8973 -243.012 92.6335 -247.331 92.445C-249.841 92.332 -252.35 92.5455 -254.846 91.8671C-255.883 91.5782 -257.068 91.9174 -258.192 91.8546C-263.21 91.5782 -268.229 91.2516 -273.247 90.9627C-274.87 90.8747 -280.188 90.322 -284.407 90.1712C-285.568 89.9577 -286.729 89.7441 -288.19 89.4677C-287.69 88.5507 -287.541 87.6964 -287.079 87.106Z" fill="url(#paint1_linear_2102_2194)"/>
<path opacity="0.6" d="M175.285 11.1C176.463 9.68021 177.108 8.38268 177.304 7.11337C177.463 6.05091 177.958 5.1953 178.276 4.23627C179.239 1.37797 180.893 -1.14183 182.408 -3.73687C182.66 -4.16937 183.015 -4.59249 183.426 -4.90277C185.502 -6.45415 187.156 -8.51325 189.558 -9.66033C190.166 -9.9518 190.661 -10.4689 191.203 -10.892C191.409 -11.0519 191.577 -11.3433 191.802 -11.3715C193.914 -11.6536 195.578 -13.0075 197.522 -13.6751C197.924 -13.8161 198.438 -14.0418 198.775 -13.9102C200.85 -13.1016 202.86 -14.1076 204.897 -14.0418C206.281 -13.9948 207.674 -13.9478 209.057 -13.8632C210.001 -13.8067 210.899 -13.5717 211.899 -13.6751C212.675 -13.7597 213.525 -13.2144 214.329 -12.8947C214.965 -12.6409 215.554 -12.246 216.199 -12.0015C218.003 -11.3245 219.769 -10.6099 221.143 -9.1996C221.265 -9.07737 221.396 -8.94574 221.555 -8.87992C225.873 -6.99006 227.799 -3.04111 229.939 0.682198C231.267 2.98576 231.444 5.59962 231.183 8.22286C231.07 9.33233 230.893 10.4418 230.809 11.5607C230.781 11.965 230.94 12.3787 231.005 12.8018C231.753 12.6137 231.799 12.0496 231.856 11.5607C232.043 9.84945 232.183 8.13824 232.332 6.42702C232.379 5.90989 232.416 5.39275 232.454 4.88503C232.51 4.10464 232.968 3.66272 233.697 3.38065C235.707 2.60966 237.679 3.05158 239.642 3.5405C240.315 3.70974 240.969 4.00122 241.605 4.30209C242.568 4.7534 243.418 5.34576 243.895 6.3424C244.437 7.48948 245.465 8.4203 245.587 9.73662C243.942 10.8367 242.278 11.8051 240.801 12.9992C239.81 13.7984 239.1 14.9361 238.109 16.0926C239.362 16.3464 240.128 15.7071 240.904 15.2934C241.511 14.9737 241.998 14.4284 242.549 13.9959C243.998 12.8394 245.568 11.9368 247.428 11.523C248.877 11.2034 250.298 10.7521 251.719 10.3102C254.991 9.29472 258.234 8.34509 261.655 9.77423C262.356 10.0657 263.207 9.98109 263.973 10.1597C267.703 11.0059 270.302 13.4129 272.554 16.243C273.47 17.3901 274.209 18.6688 275.069 19.8629C275.237 20.0979 275.564 20.2296 275.863 20.4458C276.546 19.1671 275.125 18.4525 275.34 17.2208C276.163 16.6567 277.041 16.0361 278.312 16.5157C278.621 16.6285 279.088 16.6943 279.331 16.5439C280.425 15.8575 281.369 16.4687 282.341 16.7789C282.762 16.9106 283.126 17.2491 283.538 17.3149C285.342 17.6157 286.146 18.9697 286.912 20.3142C287.744 21.781 288.081 23.3887 287.566 25.0341C287.267 25.9838 286.931 26.877 285.856 27.4976C284.669 28.1745 283.949 29.4909 282.566 30.0738C280.004 31.1457 277.462 31.9355 274.602 31.2867C272.854 30.8918 271.208 30.2901 269.601 29.5849C269.002 29.3216 268.572 28.7104 267.955 28.1557C267.75 28.1839 267.367 28.1463 267.067 28.2779C264.74 29.2934 262.338 29.5378 259.804 29.331C257.879 29.1712 255.935 29.0771 254.009 28.9737C251.139 28.8233 248.662 27.8643 246.335 26.4727C245.484 25.965 244.634 25.6641 243.661 25.4008C243.194 26.2753 244.475 26.6608 244.278 27.4317C244.176 27.5634 244.101 27.7608 243.97 27.8078C241.726 28.5694 239.483 29.3874 237.053 29.3498C235.454 29.331 233.856 29.2276 232.257 29.2276C230.622 29.2276 229.107 28.607 227.705 28.0147C225.714 27.1685 223.77 26.2282 221.676 25.5983C221.863 23.9341 223.723 23.8589 224.303 22.4767C223.91 22.5426 223.564 22.5144 223.321 22.646C220.657 24.1598 218.003 25.6923 215.329 27.2061C215.03 27.3753 214.666 27.4599 214.329 27.5634C212.217 28.2215 210.113 28.8797 207.992 29.5002C207.487 29.6507 206.945 29.6977 206.421 29.7541C205.533 29.8387 204.645 29.8575 203.766 29.961C201.934 30.1772 200.121 30.243 198.28 30.0644C196.363 29.8763 194.391 30.4311 192.503 29.6037C192.129 29.4438 191.624 29.5285 191.185 29.5567C188.296 29.7165 185.586 28.8985 182.866 28.1651C181.333 27.7514 179.772 27.4411 178.248 27.0086C177.706 26.8488 177.238 26.4539 176.547 26.059C178.061 25.0248 179.192 23.9623 179.697 22.4955C179.342 21.8562 178.884 22.1383 178.51 22.2417C177.304 22.5896 176.201 23.1161 175.416 24.1221C175.201 24.3948 174.976 24.7333 174.677 24.8555C173.051 25.5231 171.658 26.6043 170.06 27.3001C168.77 27.8642 167.405 28.2591 166.059 28.6917C164.638 29.1524 163.18 29.4156 161.684 29.6601C159.768 29.9704 157.824 30.1302 155.917 30.4593C155.094 30.6003 154.346 30.5533 153.552 30.3841C152.692 30.196 151.804 30.1208 150.925 30.008C150.579 29.961 150.177 30.0174 149.878 29.8857C148.486 29.237 147.027 29.0677 145.485 29.0019C144.569 28.9643 143.634 28.4566 142.774 28.0335C141.812 27.554 140.839 27.4129 139.718 27.4505C140.606 29.1994 140.718 29.284 143.765 30.4969C142.363 31.6158 140.578 31.5594 138.961 31.926C137.605 32.2269 136.166 32.1705 134.764 32.2645C133.866 32.3209 133.034 32.1611 132.156 31.9166C131.37 31.7004 130.445 32.1611 129.622 31.6158C129.361 31.4371 128.884 31.3619 128.594 31.4559C127.22 31.8978 126.257 31.2115 125.192 30.5345C124.192 29.8951 122.808 29.8576 122.116 28.6729C121.995 28.4754 121.462 28.419 121.126 28.4284C120.425 28.4378 119.929 28.2121 119.602 27.601C119.518 27.4505 119.424 27.2249 119.293 27.1967C117.405 26.736 116.807 24.9589 115.583 23.8307C114.367 22.7024 113.18 21.5459 111.937 20.4552C111.722 20.2672 111.236 20.1638 110.993 20.2766C110.759 20.38 110.544 20.8031 110.544 21.0852C110.535 22.063 110.899 22.9751 111.535 23.7085C113.003 25.4009 114.106 27.4223 116.265 28.5036C117.003 28.8703 116.835 29.6789 116.031 30.102C114.33 31.0046 112.46 31.0892 110.591 31.1174C109.974 31.1268 109.338 30.9388 108.731 30.9858C106.291 31.1833 104.216 30.243 102.206 29.0866C102.075 29.0113 102.019 28.8045 101.87 28.56C103.244 27.648 104.983 27.1027 105.814 25.4761C105.571 25.429 105.347 25.3162 105.235 25.3726C102.347 26.9898 99.0749 27.3941 95.8968 28.0147C94.6255 28.2591 93.2795 28.2686 91.9989 28.607C91.625 28.7105 88.5123 28.1557 88.1758 27.9865C87.0821 27.4223 85.9978 26.83 84.8948 26.3035C84.4368 26.0872 83.9227 25.9744 83.4366 25.824C83.0253 25.6923 82.4458 25.7111 82.2214 25.4385C81.483 24.5358 80.408 24.0939 79.5294 23.3982C79.2022 23.1443 78.9685 22.7494 78.7535 22.3827C78.5853 22.0912 78.5853 21.6587 78.361 21.4425C76.4821 19.5714 76.5195 17.0516 76.0615 14.7574C75.7063 13.0086 76.2297 11.1752 77.0336 9.52976C78.0992 7.36724 79.3705 5.29873 81.0063 3.50289C82.2121 2.17716 83.6236 1.05831 85.222 0.146286C86.6708 -0.681114 88.129 -1.41452 89.7929 -1.66838C91.3446 -1.89403 92.8962 -2.07268 94.4573 -2.23252C97.8878 -2.58981 101.066 -1.56494 104.169 -0.361446C106.572 0.578785 108.394 2.32762 109.806 4.46194C110.273 5.16711 110.769 5.85347 111.32 6.62446C111.918 5.65602 112.049 4.88504 111.451 4.07644C111.199 3.73796 111.012 3.34307 110.769 2.99518C109.946 1.78229 109.123 0.578777 108.133 -0.869179C106.74 -1.04782 105.394 -1.98804 104.057 -2.94707C102.758 -3.8779 101.272 -4.36684 99.6918 -4.6113C99.0001 -4.72413 98.2991 -4.88395 97.6074 -4.88395C96.4483 -4.89335 95.7566 -5.40107 95.5977 -6.50114C95.3546 -8.19356 94.3544 -9.68854 94.4947 -11.5126C94.6629 -13.6845 94.8686 -15.7718 96.1211 -17.6429C96.5511 -18.2822 96.8596 -19.0062 97.2054 -19.6926C98.2523 -21.7517 100.309 -22.8329 101.86 -24.4031C102.309 -24.8544 103.085 -25.0331 103.739 -25.2493C104.889 -25.6254 106.048 -25.9733 107.226 -26.2554C107.805 -26.3964 108.422 -26.4528 109.011 -26.3964C110.469 -26.2742 111.937 -26.1425 113.367 -25.8887C114.666 -25.6536 115.816 -25.2493 116.143 -23.6227C116.377 -22.4757 117.116 -21.432 117.564 -20.3225C118.508 -17.9626 120.088 -16.1385 122.032 -14.5025C123.014 -13.6751 123.939 -12.7725 125.07 -12.1425C125.734 -11.7664 126.454 -11.3809 127.351 -12.0767C127.155 -12.3494 127.033 -12.6973 126.79 -12.8571C125.332 -13.8161 123.92 -14.7752 123.051 -16.3736C122.705 -17.0129 121.836 -17.3608 121.415 -17.9814C120.415 -19.4763 119.312 -20.9807 118.686 -22.6355C118.004 -24.4501 117.686 -26.434 117.424 -28.3709C117.172 -30.2232 117.041 -32.113 117.63 -33.9653C117.835 -34.614 117.901 -35.3192 117.929 -36.0056C118.032 -38.3655 119.004 -40.434 120.107 -42.4461C120.555 -43.2547 121.387 -43.8377 121.518 -44.8625C121.546 -45.0788 121.836 -45.2574 121.957 -45.4831C122.621 -46.6208 124.201 -46.8464 124.65 -48.1721C125.07 -49.4226 126.538 -49.6201 127.145 -50.7014C127.286 -50.9458 127.725 -51.0304 128.033 -51.1715C129.211 -51.6792 130.417 -52.1399 131.567 -52.704C133.904 -53.8229 136.446 -54.2742 138.904 -54.9888C139.643 -55.2051 140.391 -55.3555 141.129 -55.5529C141.709 -55.7128 142.251 -55.882 142.886 -55.694C143.27 -55.5811 143.765 -55.5905 144.139 -55.7222C145.177 -56.0983 146.111 -56.1735 147.046 -55.4307C147.27 -55.2521 147.728 -55.2239 148.018 -55.3179C148.729 -55.5623 149.336 -55.4025 149.991 -55.1204C150.439 -54.923 151.019 -54.782 151.477 -54.876C152.991 -55.2145 154.318 -54.7631 155.627 -54.105C155.851 -53.9922 156.085 -53.7947 156.319 -53.7947C158.048 -53.7947 159.366 -52.8545 160.759 -51.9989C161.404 -51.604 162.208 -51.4818 162.89 -51.1527C163.413 -50.8988 164.124 -50.6073 164.292 -50.1654C164.844 -48.6893 166.031 -48.1157 167.19 -47.7208C167.695 -46.837 168.003 -46.0096 168.545 -45.3891C169.573 -44.2138 170.172 -42.8128 170.919 -41.4683C172.144 -39.2776 172.658 -36.8424 173.397 -34.5012C173.817 -33.1567 173.649 -31.6241 173.677 -30.1761C173.705 -28.982 173.593 -27.788 173.63 -26.6033C173.64 -26.3776 174.042 -26.0109 174.285 -25.9827C174.546 -25.9545 175.004 -26.2084 175.088 -26.434C175.958 -28.982 178.098 -30.0351 180.332 -31.0411C183.258 -32.3575 186.221 -32.1036 189.212 -31.389C189.867 -31.2292 190.493 -30.8813 191.091 -30.5616C191.699 -30.2419 192.222 -29.7436 192.849 -29.518C194.428 -28.9444 195.176 -27.7315 195.943 -26.3494C196.56 -25.2305 196.915 -24.0364 197.401 -22.8893C198.093 -21.2345 198.074 -19.4199 198.102 -17.6147C196.868 -16.5992 195.214 -17.0411 193.933 -16.2137C192.718 -15.4333 191.288 -14.982 189.811 -14.3239C188.708 -15.1419 187.464 -15.9128 186.39 -16.8719C184.389 -18.6677 181.912 -19.5703 179.454 -20.2755C176.762 -21.0465 173.92 -20.7832 171.247 -19.8336C167.48 -18.4985 164.395 -16.1855 161.862 -13.1392C161.432 -12.6314 161.179 -11.9827 160.843 -11.3998C158.534 -11.9357 156.263 -12.4622 153.991 -12.9981C151.327 -13.6281 148.616 -13.4494 145.934 -13.252C143.176 -13.0545 140.839 -11.616 138.39 -10.4971C138.082 -10.3561 137.82 -10.121 137.502 -9.98001C135.315 -8.98336 133.446 -7.59181 132.053 -5.64553C130.959 -4.12236 129.594 -2.77784 128.819 -1.03841C128.613 -0.577698 128.127 -0.15461 128.108 0.2967C128.043 1.68824 126.902 2.76013 127.024 4.22688C127.089 5.05429 126.687 5.90989 126.687 6.74669C126.678 8.19465 126.734 9.652 126.912 11.0906C127.136 12.877 127.463 14.654 127.846 16.4123C128.407 18.9979 129.95 21.0758 131.651 23.0597C131.885 23.3324 131.922 23.3041 133.24 23.2571C132.959 22.599 132.801 21.9314 132.436 21.4049C130.567 18.6688 130.08 15.519 129.51 12.4069C129.22 10.8085 130.052 6.65265 130.94 5.26112C131.501 4.3679 130.922 3.5969 131.025 2.64727C131.913 1.64123 132.866 0.625805 133.417 -0.793941C133.885 -1.98803 135.035 -2.9847 136.025 -3.92492C137.119 -4.97798 138.082 -6.13447 139.409 -7.01829C141.559 -8.45684 143.952 -9.21841 146.317 -10.0646C147.401 -10.4595 148.663 -10.7604 149.916 -10.2997C150.299 -10.1586 150.813 -10.1586 151.206 -10.2715C154.029 -11.1459 156.496 -10.0176 158.992 -9.01157C159.712 -8.7201 160.413 -8.37222 161.123 -8.04313C161.441 -7.8927 161.815 -7.79868 162.049 -7.57302C164.591 -5.11902 167.442 -2.92829 169.106 0.2967C169.368 0.795021 169.396 0.776234 170.209 1.02069C170.583 0.475361 170.172 0.0522499 169.975 -0.399063C169.583 -1.34869 169.181 -2.30773 168.751 -3.24796C167.816 -5.32587 166.582 -7.13111 164.507 -8.3064C163.703 -8.75771 163.049 -9.49107 162.245 -10.168C163.124 -11.6912 164.339 -12.7537 165.573 -13.7785C166.302 -14.3897 167.124 -14.8786 167.919 -15.4239C168.629 -15.9129 169.312 -16.477 170.256 -16.4488C170.34 -16.4488 170.452 -16.4676 170.508 -16.5146C172.294 -18.1318 174.63 -17.5206 176.696 -17.972C177.407 -18.1224 178.22 -17.8403 178.977 -17.7181C182.127 -17.2292 184.595 -15.5179 186.801 -13.3742C187.025 -13.1486 187.1 -12.7819 187.278 -12.4246C184.071 -9.9236 181.426 -6.98066 179.295 -3.61463C177.678 -1.05721 176.416 1.70706 175.836 4.65938C175.36 6.59626 174.584 8.59895 175.285 11.1Z" fill="url(#paint2_linear_2102_2194)"/>
<path opacity="0.6" d="M276.708 109.797C277.619 110.556 278.348 111.168 279.065 111.77C279.14 111.833 279.205 111.96 279.28 111.96C280.93 111.928 281.969 112.941 282.933 114.049C283.812 115.062 285.044 115.632 285.805 116.856C286.533 118.027 288.13 118.639 288.248 120.286C289.383 121.267 289.876 122.639 290.573 123.894C291.044 124.739 291.344 125.646 291.226 126.902C290.776 126.67 290.423 126.596 290.23 126.374C289.019 125.002 287.508 123.873 286.758 122.122C286.587 121.721 286.126 121.425 285.751 121.14C285.451 120.908 284.937 120.866 284.765 120.581C283.608 118.629 281.648 117.553 279.976 116.139C279.248 115.526 278.712 114.682 278.112 113.923C277.426 113.047 276.58 112.424 275.423 112.414C274.416 112.403 273.473 112.319 272.669 111.643C272.594 111.58 272.498 111.485 272.423 111.496C270.741 111.77 269.262 110.852 267.708 110.715C265.962 110.556 264.269 110.24 262.576 109.881C262.491 109.86 262.383 109.733 262.319 109.754C260.841 110.261 259.373 110.873 257.862 109.839C256.351 110.187 254.851 110.546 253.33 110.873C252.676 111.01 252.001 111.105 251.326 111.137C249.976 111.189 248.809 111.675 247.984 112.677C247.009 113.87 245.83 114.64 244.309 114.83C243.462 114.936 242.894 115.347 242.326 115.917C240.612 117.626 238.866 119.294 237.141 120.982C236.873 121.246 236.637 121.562 236.466 121.89C235.448 123.947 234.462 126.015 233.455 128.084C233.412 128.168 233.348 128.253 233.337 128.348C233.069 130.236 232.577 132.136 232.641 134.014C232.673 135.08 232.694 136.072 232.437 137.095C232.319 137.56 232.073 138.056 232.148 138.499C232.598 141.221 232.812 143.986 233.734 146.614C233.862 146.972 234.162 147.289 234.194 147.648C234.441 150.349 236.037 152.438 237.43 154.623C238.255 155.91 239.219 157.113 240.355 158.696C239.509 158.611 238.93 158.728 238.651 158.495C237.698 157.683 236.702 156.86 236.005 155.847C234.977 154.338 234.248 152.649 233.316 151.077C232.384 149.515 231.387 147.996 231.055 146.202C230.627 146.139 230.327 146.012 230.059 146.065C227.059 146.635 224.348 147.89 221.809 149.526C221.423 149.779 221.144 150.222 220.844 150.592C220.298 151.257 219.741 151.921 219.248 152.628C218.605 153.567 217.737 154.412 217.759 155.678C217.759 155.857 217.662 156.058 217.566 156.216C216.248 158.453 215.659 160.796 216.43 163.371C216.527 163.708 216.366 164.12 216.312 164.5C216.27 164.785 216.141 165.069 216.152 165.354C216.162 166.389 217.362 167.127 216.88 168.32C216.495 169.28 216.805 170.177 217.298 171.074C217.566 171.549 217.555 172.182 217.684 172.741C217.748 173.015 217.78 173.374 217.962 173.543C218.787 174.313 219.912 174.841 219.955 176.17C220.952 176.677 221.348 177.722 222.077 178.471C222.484 178.882 222.955 179.262 223.469 179.526C224.755 180.191 226.094 180.782 227.402 181.426C228.612 182.016 229.737 182.861 231.012 183.188C232.544 183.589 234.002 184.528 235.812 183.705C236.691 183.304 237.923 183.61 238.984 183.705C240.291 183.831 241.512 183.768 242.701 182.85C242.123 181.658 241.641 180.412 240.955 179.283C239.584 177.025 238.909 174.577 238.523 172.023C238.469 171.665 238.48 171.665 239.423 171.126C240.044 172.414 240.816 173.648 241.244 174.999C242.187 177.933 243.88 180.486 245.241 183.209C245.616 183.958 246.344 184.517 246.848 185.203C248.273 187.134 250.051 188.759 251.573 190.606C252.58 191.83 254.091 192.695 255.473 193.582C257.091 194.616 258.762 195.576 260.487 196.41C261.205 196.758 262.191 196.526 262.962 196.811C263.658 197.064 264.173 197.877 264.869 198.045C265.769 198.267 266.776 198.098 268.094 198.098C268.469 198.351 269.101 199.027 269.862 199.238C270.655 199.449 271.576 199.122 272.433 199.174C273.666 199.259 274.983 198.763 276.13 199.628C276.323 199.776 276.74 199.85 276.933 199.744C278.851 198.773 281.262 199.438 283.019 197.877C283.394 197.539 284.112 197.539 284.68 197.476C286.544 197.275 288.301 196.874 289.619 195.376C289.919 195.038 290.433 194.837 290.883 194.711C291.515 194.531 291.89 194.225 292.062 193.592C292.287 192.759 292.919 192.358 293.733 192.136C295.169 191.746 296.497 191.229 297.237 189.793C297.44 189.403 297.965 189.16 298.33 188.844C298.63 188.591 299.08 188.379 299.176 188.063C300.097 185.182 302.862 183.715 304.447 181.362C304.651 181.056 304.747 180.666 304.865 180.307C305.112 179.537 305.572 178.956 306.312 178.597C307.212 178.872 307.212 179.653 307.04 180.254C306.44 182.333 306.58 184.718 304.662 186.29C304.094 187.81 303.055 188.844 301.565 189.561C300.997 189.836 300.43 190.448 300.226 191.028C299.615 192.769 298.34 193.888 296.905 194.901C296.755 195.006 296.69 195.217 296.594 195.376C297.312 196.093 298.019 196.832 298.758 197.539C299.412 198.151 300.13 198.615 301.105 198.278C302.047 197.961 302.797 198.267 303.515 198.89C303.869 199.196 304.383 199.597 304.758 199.533C307.276 199.122 309.697 200.304 312.205 199.924C314.197 199.618 316.233 199.544 318.194 198.974C319.115 198.7 320.229 198.858 321.033 198.425C324.622 196.494 328.737 195.661 332.037 193.17C333.194 192.294 334.404 191.482 335.519 190.564C336.494 189.762 337.447 189.023 338.583 188.401C339.901 187.683 341.111 186.638 341.99 185.319C342.226 184.961 342.719 184.771 343.265 184.37C343.576 185.963 342.119 186.438 341.711 187.44C341.326 188.379 340.522 189.171 339.815 189.973C339.076 190.817 338.24 191.587 337.394 192.442C338.776 192.949 339.922 193.392 341.09 193.772C341.54 193.919 342.033 194.004 342.515 194.014C343.972 194.046 345.451 193.898 346.844 194.5C349.565 194.13 352.19 195.418 354.922 194.975C355.201 194.932 355.565 195.112 355.768 194.996C356.679 194.458 357.526 194.035 358.726 194.152C359.733 194.247 360.804 193.761 361.822 193.466C362.272 193.339 362.658 193.012 363.097 192.822C363.901 192.495 364.801 192.326 365.508 191.872C366.226 191.408 366.826 190.88 367.704 190.564C368.915 190.131 369.976 189.266 371.09 188.601C370.897 188.274 370.833 188 370.704 187.968C369.965 187.767 368.99 187.852 368.497 187.409C366.943 185.995 364.897 185.488 363.215 184.359C362.915 184.159 362.765 183.758 362.529 183.452C362.24 183.072 362.026 182.502 361.651 182.365C360.033 181.805 359.422 180.381 358.415 179.231C357.483 178.154 356.433 177.173 355.64 175.97C355.211 175.326 355.222 174.725 355.661 173.912C356.143 174.144 356.786 174.239 357.086 174.619C359.411 177.584 362.668 179.389 365.765 181.362C368.54 183.135 371.658 184.348 374.84 185.203C376.854 185.752 378.997 185.942 381.129 185.9C382.875 185.868 384.633 186.047 386.368 185.689C387.033 185.551 387.74 185.499 388.318 185.203C388.993 184.866 389.572 184.813 390.268 185.066C390.622 185.193 391.104 185.298 391.404 185.161C392.09 184.834 392.657 184.285 393.343 183.958C393.932 183.673 394.618 184.338 395.293 183.789C396.857 182.523 399 182.143 400.35 180.529C400.468 180.391 400.672 180.275 400.854 180.233C402.665 179.874 403.5 178.334 404.518 177.12C405.482 175.959 405.954 174.45 407.143 173.395C407.454 173.121 407.454 172.509 407.561 172.034C407.732 171.285 407.668 170.409 408.054 169.797C409.307 167.771 409.457 165.46 409.95 163.244C410.068 162.706 410.057 162.104 409.993 161.556C409.822 160.015 409.779 158.485 410.293 157.134C409.747 155.161 408.504 153.567 408.461 151.573C408.45 151.235 408.172 150.845 407.904 150.581C406.79 149.494 405.922 148.27 405.204 146.909C405.011 146.529 404.561 146.17 404.154 146.033C403.007 145.653 402.225 144.862 401.304 144.155C399.782 142.994 397.94 142.245 396.236 141.327C395.936 141.158 395.636 140.989 395.357 140.841C395.465 140.578 395.507 140.451 395.529 140.451C397.618 140.694 399.761 140.609 401.668 141.844C402.611 142.456 403.811 142.678 404.797 143.036C405.482 142.699 405.579 142.192 405.418 141.749C405 140.557 405.515 139.28 404.84 138.077C404.325 137.169 404.197 136.04 403.04 135.607C402.954 135.576 402.857 135.502 402.815 135.428C402.161 134.468 401.657 133.37 400.843 132.579C400.04 131.798 398.893 131.387 397.982 130.701C397.607 130.416 397.382 129.983 396.804 130.004C396.536 130.015 396.129 129.92 396.022 129.73C394.929 127.904 393.172 128.031 391.404 128.115C390.932 128.136 390.268 128.305 390 128.063C388.747 126.955 387.386 127.567 386.079 127.735C384.547 127.925 383.036 128.337 381.504 128.537C380.465 128.675 379.672 129.139 378.965 129.825C378.065 133.138 378.033 136.789 375.108 139.311C374.508 138.784 374.443 138.172 374.647 137.475C375 136.272 375.365 135.08 375.675 133.866C376.35 131.239 376.672 128.601 376.297 125.878C376.115 124.57 376.083 123.24 375.858 121.921C375.365 119.04 373.811 116.782 372.076 114.566C371.551 113.901 371.208 113.036 370.565 112.551C368.872 111.274 367.147 109.987 365.261 109.005C363.654 108.172 361.833 107.823 359.947 107.887C358.211 107.95 356.465 107.823 354.718 107.834C353.968 107.834 353.208 107.961 352.276 108.045C352.586 109.438 352.844 110.63 353.111 111.823C353.518 113.595 353.979 115.358 354.322 117.141C354.504 118.08 354.708 119.104 354.504 120.001C353.979 122.312 354.654 124.813 353.379 126.997C353.24 127.229 353.058 127.44 352.908 127.651C352.179 127.588 352.276 126.976 352.083 126.606C351.901 126.269 351.729 125.889 351.708 125.52C351.601 124 351.633 122.459 351.44 120.95C351.226 119.357 351.344 117.742 350.894 116.149C350.508 114.788 350.604 113.289 350.347 111.875C350.176 110.957 349.951 109.902 349.361 109.248C348.665 108.478 348.226 107.676 348.044 106.747C347.679 104.9 346.404 103.507 345.644 101.861C345.386 101.302 344.679 100.954 344.197 100.489C343.126 99.4448 341.283 99.1494 340.994 97.3344C339.676 96.8595 339.097 95.8043 338.701 94.5802C338.626 94.3481 338.304 94.1792 338.069 93.9998C336.258 92.5964 334.501 91.1402 332.154 90.5387C331.083 90.2643 330.097 89.4729 329.197 88.7659C328.329 88.0905 327.494 87.584 326.337 87.4996C325.179 87.4258 324.022 87.1831 323.112 86.3178C322.854 86.0751 322.426 85.8851 322.062 85.864C320.122 85.7479 318.247 85.252 316.254 85.2731C314.519 85.2836 312.805 86.0223 311.058 85.4947C309.419 84.9987 307.769 85.3786 306.13 85.4103C305.262 85.4208 304.458 85.4208 303.665 86.054C303.14 86.4655 302.176 86.2861 301.458 86.5288C299.369 87.2569 297.269 87.985 295.244 88.882C293.926 89.4729 292.619 90.2221 291.526 91.1507C290.487 92.0371 289.555 92.9657 288.173 93.3245C287.84 93.4089 287.519 93.7677 287.315 94.0737C286.598 95.1395 285.687 95.9203 284.508 96.5218C283.876 96.8489 283.448 97.6087 283.019 98.2313C282.537 98.9383 282.301 99.8669 281.701 100.447C279.162 102.874 278.23 106.146 276.783 109.153C276.687 109.332 276.73 109.543 276.708 109.797Z" fill="url(#paint3_linear_2102_2194)"/>
</g>
<defs>
<linearGradient id="paint0_linear_2102_2194" x1="180" y1="0" x2="180" y2="800" gradientUnits="userSpaceOnUse">
<stop stop-color="#336B6C"/>
<stop offset="1" stop-color="#133133"/>
</linearGradient>
<linearGradient id="paint1_linear_2102_2194" x1="-118.259" y1="-18.4827" x2="-118.259" y2="96.276" gradientUnits="userSpaceOnUse">
<stop stop-color="#E0E0E0"/>
<stop offset="1" stop-color="white" stop-opacity="0"/>
</linearGradient>
<linearGradient id="paint2_linear_2102_2194" x1="181.879" y1="-56" x2="181.879" y2="32.2759" gradientUnits="userSpaceOnUse">
<stop stop-color="#E0E0E0"/>
<stop offset="1" stop-color="white" stop-opacity="0"/>
</linearGradient>
<linearGradient id="paint3_linear_2102_2194" x1="313.19" y1="85.2415" x2="313.19" y2="200" gradientUnits="userSpaceOnUse">
<stop stop-color="#E0E0E0"/>
<stop offset="1" stop-color="white" stop-opacity="0"/>
</linearGradient>
<clipPath id="clip0_2102_2194">
<rect width="360" height="800" fill="white"/>
</clipPath>
</defs>
</svg>
